<?xml version="1.0" encoding="utf-8"?>
<!-- Generator: Adobe Illustrator 15.1.0, SVG Export Plug-In  -->
<!DOCTYPE svg PUBLIC "-//W3C//DTD SVG 1.1//EN" "http://www.w3.org/Graphics/SVG/1.1/DTD/svg11.dtd" [
	<!ENTITY ns_flows "http://ns.adobe.com/Flows/1.0/">
]>
<svg version="1.1"
	 xmlns="http://www.w3.org/2000/svg" xmlns:xlink="http://www.w3.org/1999/xlink" xmlns:a="http://ns.adobe.com/AdobeSVGViewerExtensions/3.0/"
	 x="0px" y="0px" width="811px" height="110px" viewBox="0 0 811 110" overflow="visible" enable-background="new 0 0 811 110"
	 xml:space="preserve">
<defs>
</defs>
<g>
	<g>
		<path fill="#FFFFFF" d="M0,0v110h109.857v-0.514H54.965L0,0z M199.137,27.243c-2.377-4.082-5.242-7.797-8.598-11.146
			c-3.355-3.349-7.08-6.208-11.169-8.58c-4.091-2.371-8.487-4.217-13.19-5.537C161.477,0.66,156.602,0,151.557,0
			c-5.096,0-9.982,0.66-14.66,1.98c-4.679,1.32-9.063,3.166-13.153,5.537c-4.091,2.372-7.814,5.231-11.169,8.58
			c-3.356,3.35-6.222,7.065-8.597,11.146c-2.377,4.083-4.226,8.47-5.548,13.164C97.106,45.1,96.444,49.965,96.444,55
			c0,5.085,0.662,9.962,1.984,14.629c1.323,4.671,3.171,9.047,5.548,13.128c2.375,4.082,5.241,7.798,8.597,11.146
			c3.355,3.35,7.079,6.209,11.169,8.58c4.09,2.372,8.487,4.217,13.19,5.536c4.703,1.32,9.577,1.98,14.624,1.98
			c5.045,0,9.92-0.66,14.623-1.98c4.703-1.319,9.099-3.164,13.19-5.536c4.089-2.371,7.813-5.23,11.169-8.58
			c3.355-3.349,6.221-7.064,8.598-11.146c2.375-4.081,4.226-8.47,5.548-13.163c1.322-4.694,1.983-9.558,1.983-14.594
			c0-5.034-0.661-9.899-1.983-14.593C203.362,35.713,201.512,31.326,199.137,27.243z M241.45,73.699L204.488,0H203.9l55.112,110
			L314.125,0L241.45,73.699z M419.522,40.407c-1.322-4.693-3.173-9.081-5.548-13.164c-2.376-4.082-5.243-7.797-8.597-11.146
			c-3.356-3.349-7.067-6.208-11.132-8.58c-4.067-2.371-8.451-4.217-13.154-5.537C376.389,0.66,371.513,0,366.468,0
			c-5.095,0-9.982,0.66-14.66,1.98c-4.679,1.32-9.063,3.166-13.153,5.537c-4.091,2.372-7.815,5.231-11.169,8.58
			c-3.356,3.35-6.222,7.065-8.598,11.146c-2.376,4.083-4.226,8.47-5.548,13.164c-1.323,4.693-1.984,9.559-1.984,14.593
			c0,5.037,0.662,9.9,1.984,14.594c1.322,4.693,3.171,9.069,5.548,13.127c2.375,4.059,5.241,7.761,8.598,11.109
			c3.354,3.349,7.078,6.222,11.169,8.617c4.09,2.396,8.487,4.253,13.19,5.572c4.703,1.32,9.577,1.98,14.623,1.98v-0.586
			c-5.046,0-9.883-0.648-14.513-1.944c-4.629-1.295-8.965-3.128-13.006-5.5c-4.042-2.37-7.716-5.206-11.022-8.507
			c-3.307-3.3-6.148-6.967-8.524-11c-2.376-4.033-4.213-8.371-5.511-13.017c-1.298-4.644-1.947-9.46-1.947-14.447h109.563
			C421.507,49.965,420.846,45.1,419.522,40.407z M434.058,0v110h109.857v-0.514h-54.892L434.058,0z M555.312,110h0.587V0h-0.587V110
			z M601.472,73.699L564.51,0h-0.588l55.112,110L674.146,0L601.472,73.699z M779.544,40.407c-1.322-4.693-3.172-9.081-5.547-13.164
			c-2.378-4.082-5.243-7.797-8.599-11.146c-3.355-3.349-7.066-6.208-11.132-8.58c-4.067-2.371-8.451-4.217-13.153-5.537
			C736.41,0.66,731.534,0,726.49,0c-5.096,0-9.982,0.66-14.66,1.98c-4.679,1.32-9.063,3.166-13.154,5.537
			c-4.091,2.372-7.814,5.231-11.168,8.58c-3.356,3.35-6.223,7.065-8.599,11.146c-2.376,4.083-4.225,8.47-5.548,13.164
			c-1.322,4.693-1.984,9.559-1.984,14.593c0,5.037,0.662,9.9,1.984,14.594c1.323,4.693,3.172,9.069,5.548,13.127
			c2.376,4.059,5.242,7.761,8.599,11.109c3.354,3.349,7.077,6.222,11.168,8.617s8.488,4.253,13.191,5.572
			c4.702,1.32,9.576,1.98,14.623,1.98v-0.586c-5.047,0-9.884-0.648-14.514-1.944c-4.629-1.295-8.964-3.128-13.007-5.5
			c-4.041-2.37-7.715-5.206-11.022-8.507c-3.307-3.3-6.148-6.967-8.523-11c-2.377-4.033-4.213-8.371-5.512-13.017
			c-1.299-4.644-1.946-9.46-1.946-14.447h109.562C781.528,49.965,780.867,45.1,779.544,40.407z M809.935,90.677
			c-0.711-1.688-1.689-3.153-2.938-4.4c-1.25-1.247-2.695-2.236-4.337-2.97s-3.416-1.124-5.326-1.174V0h-0.589v82.133
			c-1.91,0.05-3.686,0.44-5.327,1.174s-3.086,1.723-4.336,2.97c-1.249,1.247-2.229,2.713-2.939,4.4
			c-0.71,1.687-1.065,3.482-1.065,5.39s0.368,3.717,1.103,5.427c0.735,1.713,1.727,3.19,2.976,4.437
			c1.25,1.247,2.731,2.237,4.447,2.971c1.713,0.733,3.526,1.1,5.437,1.1c1.911,0,3.723-0.366,5.438-1.1
			c1.714-0.733,3.195-1.724,4.445-2.971c1.249-1.246,2.241-2.724,2.977-4.437c0.734-1.71,1.102-3.52,1.102-5.427
			S810.645,92.363,809.935,90.677z"/>
	</g>
</g>
</svg>
