<?xml version="1.0" encoding="utf-8"?>
<!-- Generator: Adobe Illustrator 15.1.0, SVG Export Plug-In  -->
<!DOCTYPE svg PUBLIC "-//W3C//DTD SVG 1.1//EN" "http://www.w3.org/Graphics/SVG/1.1/DTD/svg11.dtd" [
	<!ENTITY ns_flows "http://ns.adobe.com/Flows/1.0/">
]>
<svg version="1.1"
	 xmlns="http://www.w3.org/2000/svg" xmlns:xlink="http://www.w3.org/1999/xlink" xmlns:a="http://ns.adobe.com/AdobeSVGViewerExtensions/3.0/"
	 x="0px" y="0px" width="723px" height="127px" viewBox="0 0 723 127" overflow="visible" enable-background="new 0 0 723 127"
	 xml:space="preserve">
<defs>
</defs>
<g>
	<g>
		<path fill="#FFFFFF" d="M67.436,108.496H17.465V2.13c0-1.265-0.629-1.9-1.883-1.9H1.883C0.627,0.229,0,0.865,0,2.132v122.793
			c0,1.271,0.632,1.902,1.902,1.902h65.539c1.151,0,1.729-0.641,1.729-1.921v-14.666C69.171,109.079,68.593,108.496,67.436,108.496z
			 M13.834,123.023H3.631V112.3h10.203V123.023z M13.834,108.496H3.631V3.861h10.203V108.496z M65.54,123.023H17.465V112.3H65.54
			V123.023z M186.934,13.201c-4.842-4.15-10.665-7.264-17.466-9.339c-1.5-0.458-2.969-0.892-4.41-1.296
			c-1.442-0.403-2.969-0.719-4.583-0.951V1.44c-0.232-0.113-2.048-0.373-5.447-0.778c-3.402-0.402-7.755-0.489-13.056-0.259
			l-0.173,0.173c-1.616-0.23-3.604-0.403-5.966-0.519c-2.364-0.114-4.928-0.057-7.695,0.172c-6.226,0.347-11.991,1.384-17.293,3.114
			c-3.345,1.038-6.484,2.334-9.424,3.891c-2.939,1.556-5.62,3.373-8.041,5.448C80.351,23.292,73.839,40.008,73.839,62.837
			c0,24.099,6.801,41.451,20.405,52.057c5.302,4.267,11.354,7.324,18.158,9.166c5.534,1.5,11.527,2.364,17.984,2.595h4.842
			c0.921,0,1.843-0.057,2.767-0.174c1.038,0.233,2.075,0.347,3.113,0.347s2.075,0.057,3.112,0.173h2.076
			c2.075,0,4.004-0.059,5.793-0.173c1.786-0.113,3.372-0.286,4.755-0.519h0.173c0.459,0,0.805-0.057,1.038-0.173h0.173
			c2.534-0.347,4.207-0.632,5.015-0.865c0.805-0.229,1.613-0.433,2.421-0.604c0.805-0.173,1.556-0.374,2.248-0.606
			c7.031-1.842,13.199-4.899,18.503-9.166c13.372-10.723,20.059-27.901,20.059-51.539C206.474,40.527,199.96,23.811,186.934,13.201z
			 M118.281,121.725c-0.232-0.057-0.405-0.086-0.519-0.086c-0.232,0-0.346-0.057-0.346-0.173c-1.153-0.113-2.48-0.402-3.977-0.864
			c-6.804-1.96-12.451-4.783-16.947-8.475C83.81,102.096,77.47,85.667,77.47,62.837c0-21.446,6.053-37.24,18.158-47.387
			c4.496-3.689,9.914-6.572,16.255-8.648c2.651-0.805,5.534-1.497,8.646-2.075v0.318c-5.043,2.054-9.486,4.656-13.315,7.81
			C94.185,23.578,87.673,40.354,87.673,63.183c0,23.867,6.801,41.222,20.405,52.057c3.458,2.768,7.09,4.959,10.895,6.572
			C118.741,121.812,118.511,121.786,118.281,121.725z M153.213,120.255c-0.692,0.233-1.413,0.432-2.162,0.605
			c-0.751,0.173-1.529,0.376-2.335,0.605h-0.172c-0.233,0.116-0.462,0.173-0.692,0.173c-0.232,0-0.462,0.06-0.692,0.173
			c-0.692,0.116-1.616,0.233-2.767,0.347c-1.154,0.116-2.537,0.288-4.15,0.519c-0.692,0-1.27,0.059-1.729,0.173
			c-1.154-0.114-2.191-0.26-3.113-0.433c-0.924-0.173-1.672-0.315-2.248-0.433c-0.692-0.113-1.327-0.229-1.902-0.346v0.173
			c-0.691-0.229-1.384-0.402-2.075-0.519c-0.692-0.113-1.327-0.286-1.902-0.52c-6.226-1.729-11.875-4.553-16.947-8.474
			c-12.684-9.915-19.022-26.289-19.022-49.118c0-21.559,6.053-37.356,18.157-47.388c4.842-3.918,10.26-6.801,16.255-8.647
			c2.651-0.805,5.534-1.497,8.646-2.075v0.173c0.692-0.113,1.384-0.229,2.076-0.346c1.15-0.114,2.88-0.286,5.188-0.519
			c4.726,0.578,9.049,1.499,12.969,2.767c5.993,1.846,11.413,4.729,16.255,8.647c12.105,9.917,18.158,25.713,18.158,47.388
			c0,22.253-6.285,38.454-18.849,48.599C165.317,115.703,159.667,118.526,153.213,120.255z M183.994,111.954
			c-4.729,3.921-10.376,6.805-16.947,8.648c-0.692,0.231-1.413,0.405-2.162,0.519c-0.751,0.116-1.529,0.289-2.334,0.519h-0.173
			c-0.924,0.232-1.672,0.406-2.248,0.52c-0.232,0-0.492,0.029-0.778,0.086c-0.289,0.059-0.548,0.086-0.778,0.086
			c5.188-1.842,9.857-4.437,14.007-7.782c13.372-10.606,20.06-27.729,20.06-51.366c0-22.829-6.515-39.605-19.541-50.328
			c-3.459-2.767-7.609-5.245-12.451-7.437c1.383,0.232,2.707,0.519,3.977,0.864c1.267,0.347,2.534,0.692,3.805,1.038
			c3.112,1.038,6.022,2.248,8.732,3.632c2.707,1.383,5.215,3.056,7.522,5.016C196.79,26,202.843,41.796,202.843,63.355
			C202.843,85.956,196.558,102.155,183.994,111.954z M297.087,0.057h-15.39c-0.808,0-1.383,0.405-1.729,1.21l-34.412,97.715
			l-35.45-98.926h-3.805l44.789,125.56c0.346,0.808,0.921,1.211,1.729,1.211c0.921,0,1.497-0.403,1.729-1.211l44.27-122.966
			c0.229-0.576,0.172-1.151-0.173-1.729C298.298,0.346,297.779,0.057,297.087,0.057z M252.818,119.391l-5.361-14.873L283.081,3.861
			h11.413L252.818,119.391z M311.44,1.959v122.966c0,1.271,0.627,1.902,1.883,1.902h69.536v-3.805h-54.126V74.251h35.969
			c1.268,0,1.902-0.632,1.902-1.902V57.995c0-1.268-0.635-1.903-1.902-1.903h-35.969V3.861h54.126V0.057h-69.536
			C312.068,0.057,311.44,0.692,311.44,1.959z M328.733,59.897h34.24v10.55h-34.24V59.897z M315.072,3.861h10.03v52.23h-10.03V3.861z
			 M315.072,59.897h10.03v10.55h-10.03V59.897z M315.072,74.251h10.03v48.771h-10.03V74.251z M466.687,108.496h-49.97V2.13
			c0-1.265-0.63-1.9-1.885-1.9h-13.698c-1.256,0-1.883,0.635-1.883,1.903v122.793c0,1.271,0.632,1.902,1.901,1.902h65.54
			c1.15,0,1.729-0.641,1.729-1.921v-14.666C468.421,109.079,467.843,108.496,466.687,108.496z M413.085,123.023h-10.203V112.3
			h10.203V123.023z M413.085,108.496h-10.203V3.861h10.203V108.496z M464.789,123.023h-48.072V112.3h48.072V123.023z M498.562,0.229
			H484.9c-1.153,0-1.729,0.635-1.729,1.903v122.793c0,1.271,0.576,1.902,1.729,1.902h13.661c1.268,0,1.902-0.632,1.902-1.902V2.132
			C500.464,0.865,499.829,0.229,498.562,0.229z M496.833,123.023h-10.031V18.043h10.031V123.023z M496.833,14.412h-10.031V3.861
			h10.031V14.412z M603.182,0.057h-15.391c-0.808,0-1.383,0.405-1.729,1.21l-34.412,97.715l-35.45-98.926h-3.804l44.788,125.56
			c0.345,0.808,0.92,1.211,1.729,1.211c0.922,0,1.497-0.403,1.729-1.211l44.27-122.966c0.229-0.576,0.173-1.151-0.173-1.729
			C604.392,0.346,603.873,0.057,603.182,0.057z M558.912,119.391l-5.36-14.873L589.175,3.861h11.413L558.912,119.391z
			 M617.535,1.959v122.966c0,1.271,0.626,1.902,1.883,1.902h69.535v-3.805h-54.126V74.251h35.969c1.267,0,1.902-0.632,1.902-1.902
			V57.995c0-1.268-0.636-1.903-1.902-1.903h-35.969V3.861h54.126V0.057h-69.535C618.161,0.057,617.535,0.692,617.535,1.959z
			 M634.827,59.897h34.239v10.55h-34.239V59.897z M621.166,3.861h10.029v52.23h-10.029V3.861z M621.166,59.897h10.029v10.55h-10.029
			V59.897z M621.166,74.251h10.029v48.771h-10.029V74.251z M721.099,0.403h-13.315c-1.271,0-1.903,0.635-1.903,1.902v122.62
			c0,1.154,0.575,1.729,1.729,1.729h13.661c1.151,0,1.729-0.575,1.729-1.729V2.305C723,1.038,722.365,0.403,721.099,0.403z
			 M719.369,123.023h-9.857v-9.34h9.857V123.023z M719.369,110.052h-9.857V4.035h9.857V110.052z"/>
	</g>
</g>
</svg>
