<?xml version="1.0" encoding="utf-8"?>
<!-- Generator: Adobe Illustrator 15.1.0, SVG Export Plug-In  -->
<!DOCTYPE svg PUBLIC "-//W3C//DTD SVG 1.1//EN" "http://www.w3.org/Graphics/SVG/1.1/DTD/svg11.dtd" [
	<!ENTITY ns_flows "http://ns.adobe.com/Flows/1.0/">
]>
<svg version="1.1"
	 xmlns="http://www.w3.org/2000/svg" xmlns:xlink="http://www.w3.org/1999/xlink" xmlns:a="http://ns.adobe.com/AdobeSVGViewerExtensions/3.0/"
	 x="0px" y="0px" width="630px" height="142px" viewBox="0 0 630 142" overflow="visible" enable-background="new 0 0 630 142"
	 xml:space="preserve">
<defs>
</defs>
<g>
	<g>
		<path fill="#FFFFFF" d="M20.069,1.177H0v139.646h59.813v-20.005H20.069V1.177z M132.119,8.531
			c-3.216-2.81-6.822-4.934-10.821-6.374C117.295,0.72,113.262,0,109.197,0c-4.067,0-8.101,0.72-12.1,2.157
			c-4.003,1.44-7.609,3.564-10.821,6.374c-3.216,2.813-5.804,6.375-7.772,10.689c-1.967,4.315-2.951,9.286-2.951,14.907v73.746
			c0,5.755,0.984,10.756,2.951,15.004c1.968,4.25,4.556,7.781,7.772,10.591c3.212,2.813,6.818,4.938,10.821,6.375
			c4,1.438,8.033,2.157,12.1,2.157c4.064,0,8.098-0.72,12.101-2.157c4-1.438,7.605-3.562,10.821-6.375
			c3.213-2.81,5.804-6.341,7.771-10.591c1.968-4.248,2.952-9.249,2.952-15.004V34.127c0-5.621-0.984-10.591-2.952-14.907
			C137.923,14.906,135.332,11.345,132.119,8.531z M122.773,107.873c0,4.839-1.347,8.402-4.034,10.688
			c-2.689,2.289-5.872,3.433-9.542,3.433c-3.674,0-6.855-1.144-9.542-3.433c-2.69-2.286-4.033-5.85-4.033-10.688V34.127
			c0-4.835,1.343-8.4,4.033-10.689c2.687-2.286,5.869-3.432,9.542-3.432c3.671,0,6.853,1.146,9.542,3.432
			c2.687,2.29,4.034,5.854,4.034,10.689V107.873z M191.638,98.654h-0.394L175.308,1.177h-21.25l28.529,139.646h17.708L229.021,1.177
			h-21.25L191.638,98.654z M244.958,140.822h59.813v-20.005h-39.745V79.825h34.629V60.997h-34.629V20.005h39.745V1.177h-59.813
			V140.822z M341.76,1.177H321.69v139.646h59.812v-20.005H341.76V1.177z M399.014,140.822h20.069V1.177h-20.069V140.822z
			 M473.188,98.654h-0.394L456.858,1.177h-21.25l28.53,139.646h17.707L510.571,1.177h-21.249L473.188,98.654z M526.509,140.822
			h59.813v-20.005h-39.745V79.825h34.629V60.997h-34.629V20.005h39.745V1.177h-59.813V140.822z M607.373,140.822h20.069v-20.005
			h-20.069V140.822z M622.327,106.304L630,1.177h-25.184l7.673,105.127H622.327z"/>
	</g>
</g>
</svg>
