<?xml version="1.0" encoding="utf-8"?>
<!-- Generator: Adobe Illustrator 15.1.0, SVG Export Plug-In  -->
<!DOCTYPE svg PUBLIC "-//W3C//DTD SVG 1.1//EN" "http://www.w3.org/Graphics/SVG/1.1/DTD/svg11.dtd" [
	<!ENTITY ns_flows "http://ns.adobe.com/Flows/1.0/">
]>
<svg version="1.1"
	 xmlns="http://www.w3.org/2000/svg" xmlns:xlink="http://www.w3.org/1999/xlink" xmlns:a="http://ns.adobe.com/AdobeSVGViewerExtensions/3.0/"
	 x="0px" y="0px" width="742px" height="117px" viewBox="0 0 742 117" overflow="visible" enable-background="new 0 0 742 117"
	 xml:space="preserve">
<defs>
</defs>
<g>
	<g>
		<path fill="#FFFFFF" d="M68.658,100.286h-52.08V8.19c0-2.228-0.811-4.149-2.428-5.766C12.531,0.81,10.605,0,8.373,0
			C6.138,0,4.187,0.81,2.512,2.424C0.837,4.041,0,5.962,0,8.19v100.62c0,2.23,0.837,4.153,2.512,5.767
			C4.187,116.193,6.138,117,8.373,117h60.285c2.231,0,4.186-0.807,5.86-2.424c1.675-1.613,2.512-3.536,2.512-5.767
			c0-2.34-0.837-4.346-2.512-6.018C72.844,101.122,70.89,100.286,68.658,100.286z M174.489,17.216
			c-5.693-5.683-12.085-9.971-19.174-12.87C148.225,1.45,140.831,0,133.127,0c-7.928,0-15.406,1.45-22.439,4.346
			c-7.033,2.899-13.396,7.188-19.09,12.87c-5.694,5.683-9.964,12.063-12.811,19.138c-2.847,7.077-4.27,14.458-4.27,22.146
			s1.423,15.1,4.27,22.23c2.847,7.132,7.117,13.538,12.811,19.222c5.693,5.572,12.028,9.806,19.006,12.702
			c6.976,2.899,14.485,4.346,22.523,4.346c7.703,0,15.126-1.446,22.272-4.346c7.143-2.896,13.507-7.13,19.09-12.702
			c5.694-5.684,9.99-12.09,12.895-19.222c2.902-7.131,4.354-14.542,4.354-22.23c0-7.576-1.452-14.93-4.354-22.062
			C184.479,29.308,180.183,22.898,174.489,17.216z M171.894,74.296c-2.066,5.181-5.107,9.776-9.126,13.788
			c-4.019,3.902-8.541,6.911-13.564,9.026c-5.024,2.117-10.382,3.176-16.076,3.176s-11.081-1.059-16.16-3.176
			c-5.082-2.115-9.574-5.124-13.48-9.026c-4.244-4.012-7.342-8.578-9.294-13.705c-1.955-5.124-2.931-10.418-2.931-15.879
			c0-5.348,0.976-10.584,2.931-15.711c1.952-5.124,5.05-9.749,9.294-13.873c3.907-3.899,8.399-6.908,13.48-9.026
			c5.079-2.115,10.466-3.176,16.16-3.176s11.052,1.061,16.076,3.176c5.023,2.118,9.545,5.126,13.564,9.026
			c4.019,4.124,7.06,8.72,9.126,13.79c2.065,5.072,3.099,10.336,3.099,15.794C174.992,63.849,173.958,69.114,171.894,74.296z
			 M133.127,45.296c-1.9,0-3.658,0.363-5.275,1.086c-1.62,0.727-3.043,1.672-4.27,2.842c-1.23,1.17-2.206,2.564-2.931,4.178
			c-0.728,1.617-1.089,3.317-1.089,5.098c0,3.678,1.312,6.827,3.936,9.443c2.622,2.62,5.832,3.929,9.629,3.929
			c3.572,0,6.669-1.309,9.294-3.929c2.622-2.616,3.935-5.766,3.935-9.443c0-3.564-1.313-6.657-3.935-9.276
			C139.797,46.607,136.699,45.296,133.127,45.296z M287.858,1.003C286.628,0.334,285.347,0,284.007,0h-20.262
			c-2.235,0-4.161,0.836-5.778,2.507c-1.62,1.671-2.428,3.622-2.428,5.85c0,2.23,0.808,4.178,2.428,5.85
			c1.617,1.671,3.543,2.507,5.778,2.507h8.038l-27.966,69.532L211.163,5.349c-0.56-1.671-1.564-2.979-3.015-3.928
			C206.696,0.476,205.134,0,203.459,0c-1.117,0-2.067,0.167-2.847,0.501c-1.675,0.56-2.988,1.616-3.936,3.176
			c-0.95,1.562-1.423,3.121-1.423,4.68c0,1.228,0.168,2.23,0.502,3.008l40.19,100.286c0.78,1.45,1.868,2.703,3.265,3.761
			c1.395,1.06,2.931,1.588,4.605,1.588c1.562,0,3.041-0.528,4.438-1.588c1.395-1.058,2.483-2.311,3.266-3.761
			c6.363-16.155,13.062-32.87,20.095-50.144c7.033-17.27,13.732-33.984,20.095-50.142c0.335-0.778,0.502-1.838,0.502-3.176
			c0-1.671-0.448-3.118-1.34-4.346C290.09,2.62,289.085,1.672,287.858,1.003z M377.614,14.208c1.675-1.672,2.513-3.678,2.513-6.018
			c0-2.228-0.838-4.149-2.513-5.766C375.939,0.81,373.931,0,371.586,0h-60.285c-2.344,0-4.299,0.781-5.861,2.34
			c-1.674,1.896-2.512,3.845-2.512,5.85v100.62c0,2.23,0.837,4.153,2.512,5.767c1.675,1.617,3.626,2.424,5.861,2.424h60.285
			c2.345,0,4.354-0.807,6.028-2.424c1.675-1.613,2.513-3.536,2.513-5.767c0-2.34-0.838-4.346-2.513-6.018
			c-1.675-1.67-3.684-2.506-6.028-2.506h-51.912V16.714h51.912C373.931,16.714,375.939,15.879,377.614,14.208z M340.606,52.734
			c-1.674,1.617-2.512,3.539-2.512,5.766c0,2.23,0.837,4.152,2.512,5.768c1.674,1.616,3.626,2.423,5.861,2.423
			c2.344,0,4.325-0.807,5.945-2.423c1.617-1.615,2.428-3.537,2.428-5.768c0-2.228-0.811-4.149-2.428-5.766
			c-1.62-1.614-3.601-2.424-5.945-2.424C344.233,50.31,342.281,51.12,340.606,52.734z M463.185,100.286h-52.079V8.19
			c0-2.228-0.812-4.149-2.428-5.766C407.058,0.81,405.133,0,402.901,0c-2.235,0-4.188,0.81-5.862,2.424
			c-1.675,1.617-2.512,3.539-2.512,5.766v100.62c0,2.23,0.837,4.153,2.512,5.767c1.675,1.617,3.627,2.424,5.862,2.424h60.283
			c2.233,0,4.188-0.807,5.862-2.424c1.675-1.613,2.512-3.536,2.512-5.767c0-2.34-0.837-4.346-2.512-6.018
			C467.372,101.122,465.418,100.286,463.185,100.286z M491.315,0c-2.233,0-4.159,0.81-5.776,2.424
			c-1.62,1.617-2.428,3.539-2.428,5.766v100.62c0,2.23,0.808,4.153,2.428,5.767c1.617,1.617,3.543,2.424,5.776,2.424
			s4.188-0.807,5.862-2.424c1.675-1.613,2.512-3.536,2.512-5.767V8.19c0-2.228-0.837-4.149-2.512-5.766
			C495.503,0.81,493.549,0,491.315,0z M608.034,1.003C606.805,0.334,605.522,0,604.184,0h-20.263c-2.235,0-4.16,0.836-5.778,2.507
			c-1.618,1.671-2.428,3.622-2.428,5.85c0,2.23,0.81,4.178,2.428,5.85c1.618,1.671,3.543,2.507,5.778,2.507h8.038l-27.967,69.532
			L531.339,5.349c-0.561-1.671-1.563-2.979-3.015-3.928C526.872,0.476,525.311,0,523.636,0c-1.116,0-2.067,0.167-2.846,0.501
			c-1.675,0.56-2.989,1.616-3.936,3.176c-0.951,1.562-1.423,3.121-1.423,4.68c0,1.228,0.166,2.23,0.501,3.008l40.189,100.286
			c0.78,1.45,1.87,2.703,3.266,3.761c1.396,1.06,2.932,1.588,4.604,1.588c1.563,0,3.042-0.528,4.439-1.588
			c1.394-1.058,2.482-2.311,3.266-3.761c6.361-16.155,13.062-32.87,20.095-50.144c7.033-17.27,13.73-33.984,20.094-50.142
			c0.336-0.778,0.502-1.838,0.502-3.176c0-1.671-0.447-3.118-1.339-4.346C610.266,2.62,609.263,1.672,608.034,1.003z
			 M664.133,52.734c-1.675,1.617-2.513,3.539-2.513,5.766c0,2.23,0.838,4.152,2.513,5.768c1.675,1.616,3.625,2.423,5.86,2.423
			c2.344,0,4.325-0.807,5.945-2.423c1.616-1.615,2.427-3.537,2.427-5.768c0-2.228-0.811-4.149-2.427-5.766
			c-1.62-1.614-3.602-2.424-5.945-2.424C667.758,50.31,665.808,51.12,664.133,52.734z M701.14,14.208
			c1.675-1.672,2.513-3.678,2.513-6.018c0-2.228-0.838-4.149-2.513-5.766C699.465,0.81,697.456,0,695.111,0h-60.285
			c-2.344,0-4.298,0.781-5.859,2.34c-1.675,1.896-2.513,3.845-2.513,5.85v100.62c0,2.23,0.838,4.153,2.513,5.767
			c1.675,1.617,3.627,2.424,5.859,2.424h60.285c2.345,0,4.354-0.807,6.028-2.424c1.675-1.613,2.513-3.536,2.513-5.767
			c0-2.34-0.838-4.346-2.513-6.018c-1.675-1.67-3.684-2.506-6.028-2.506h-51.912V16.714h51.912
			C697.456,16.714,699.465,15.879,701.14,14.208z M739.487,2.424C737.812,0.81,735.805,0,733.46,0c-2.235,0-4.162,0.81-5.778,2.424
			c-1.62,1.617-2.429,3.539-2.429,5.766v70.368c0,2.229,0.809,4.179,2.429,5.85c1.616,1.671,3.543,2.507,5.778,2.507
			c2.345,0,4.353-0.836,6.027-2.507s2.513-3.62,2.513-5.85V8.19C742,5.962,741.162,4.041,739.487,2.424z M733.46,100.286
			c-2.235,0-4.162,0.836-5.778,2.506c-1.62,1.672-2.429,3.678-2.429,6.018c0,2.23,0.809,4.153,2.429,5.767
			c1.616,1.617,3.543,2.424,5.778,2.424c2.345,0,4.353-0.807,6.027-2.424c1.675-1.613,2.513-3.536,2.513-5.767
			c0-2.34-0.838-4.346-2.513-6.018C737.812,101.122,735.805,100.286,733.46,100.286z"/>
	</g>
</g>
</svg>
