<?xml version="1.0" encoding="utf-8"?>
<!-- Generator: Adobe Illustrator 15.1.0, SVG Export Plug-In  -->
<!DOCTYPE svg PUBLIC "-//W3C//DTD SVG 1.1//EN" "http://www.w3.org/Graphics/SVG/1.1/DTD/svg11.dtd" [
	<!ENTITY ns_flows "http://ns.adobe.com/Flows/1.0/">
]>
<svg version="1.1"
	 xmlns="http://www.w3.org/2000/svg" xmlns:xlink="http://www.w3.org/1999/xlink" xmlns:a="http://ns.adobe.com/AdobeSVGViewerExtensions/3.0/"
	 x="0px" y="0px" width="733px" height="168px" viewBox="0 0 733 168" overflow="visible" enable-background="new 0 0 733 168"
	 xml:space="preserve">
<defs>
</defs>
<g>
	<g>
		<path fill="#FFFFFF" d="M13.903,64.218c1.158,0,1.985-0.988,1.985-1.976v-8.398c0-1.317-0.827-2.141-1.985-2.141
			c-1.157,0-2.15,0.824-2.15,2.141v8.398C11.753,63.23,12.746,64.218,13.903,64.218z M13.903,30.957
			c1.158,0,1.985-1.153,1.985-2.141v-8.398c0-1.152-0.827-2.141-1.985-2.141c-1.157,0-2.15,0.989-2.15,2.141v8.398
			C11.753,29.804,12.746,30.957,13.903,30.957z M13.903,97.645c1.158,0,1.985-0.988,1.985-1.977v-8.397
			c0-1.317-0.827-2.141-1.985-2.141c-1.157,0-2.15,0.823-2.15,2.141v8.397C11.753,96.656,12.746,97.645,13.903,97.645z
			 M13.903,81.013c1.158,0,1.985-0.988,1.985-2.141v-8.397c0-1.152-0.827-1.976-1.985-1.976c-1.157,0-2.15,0.823-2.15,1.976v8.397
			C11.753,80.025,12.746,81.013,13.903,81.013z M64.679,116.908h8.27c1.158,0,2.15-0.823,2.15-2.141c0-0.987-0.993-1.975-2.15-1.975
			h-8.27c-1.323,0-2.15,0.987-2.15,1.975C62.528,116.085,63.356,116.908,64.679,116.908z M13.903,14.161
			c1.158,0,1.985-0.988,1.985-2.141V3.788c0-1.318-0.827-2.141-1.985-2.141c-1.157,0-2.15,0.823-2.15,2.141v8.232
			C11.753,13.173,12.746,14.161,13.903,14.161z M13.903,47.587c1.158,0,1.985-0.988,1.985-2.141v-8.233
			c0-1.317-0.827-2.141-1.985-2.141c-1.157,0-2.15,0.823-2.15,2.141v8.233C11.753,46.599,12.746,47.587,13.903,47.587z
			 M56.244,112.793h-8.435c-1.158,0-2.15,0.987-2.15,1.975c0,1.317,0.992,2.141,2.15,2.141h8.435c0.993,0,2.15-0.823,2.15-2.141
			C58.394,113.78,57.236,112.793,56.244,112.793z M31.104,116.908h8.269c1.158,0,2.15-0.823,2.15-2.141
			c0-0.987-0.992-1.975-2.15-1.975h-8.269c-1.323,0-2.15,0.987-2.15,1.975C28.955,116.085,29.781,116.908,31.104,116.908z
			 M12.25,114.768c0,1.317,0.827,2.141,1.984,2.141h8.435c0.992,0,2.15-0.823,2.15-2.141c0-0.987-1.158-1.975-2.15-1.975h-6.946
			c0-0.166,0.165-0.33,0.165-0.495V103.9c0-1.152-0.827-1.977-1.985-1.977c-1.157,0-2.15,0.824-2.15,1.977v8.397
			c0,0.66,0.166,1.153,0.662,1.647C12.25,114.109,12.25,114.438,12.25,114.768z M160.937,109.993c0.496,0,0.662-0.165,0.992-0.329
			c2.646-1.482,4.962-2.964,7.277-4.775c0.827-0.824,0.993-2.141,0.331-2.965c-0.827-0.986-2.15-0.986-3.143-0.493
			c-1.819,1.812-4.134,3.458-6.616,4.61c-1.158,0.659-1.323,1.977-0.827,2.964C159.283,109.664,160.275,109.993,160.937,109.993z
			 M162.591,12.515c2.15,1.646,4.3,3.293,6.285,5.104c0.496,0.494,0.827,0.494,1.323,0.494c0.661,0,1.323-0.165,1.654-0.659
			c0.992-0.823,0.827-2.141-0.166-2.964c-2.15-1.976-4.465-3.952-6.781-5.599c-0.993-0.658-2.315-0.165-2.978,0.659
			C161.433,10.538,161.599,11.855,162.591,12.515z M131.498,4.61c1.323-0.329,2.481-0.329,3.969-0.329s2.977,0,4.135,0.329
			c0.331,0,0.331,0,0.331,0c0.992,0,1.985-0.823,1.985-1.976c0.331-1.152-0.662-2.47-1.819-2.47C138.609,0,136.955,0,135.467,0
			c-1.654,0-2.977,0-4.135,0.165c-1.323,0-2.15,1.317-2.15,2.305C129.347,3.788,130.505,4.61,131.498,4.61z M182.438,37.872
			c1.158,2.306,1.819,4.94,2.48,7.41c0.331,1.153,1.324,1.812,2.15,1.812c0.166,0,0.496,0,0.496,0
			c1.158-0.329,1.819-1.481,1.654-2.635c-0.661-2.799-1.488-5.599-2.48-8.397c-0.496-1.152-1.82-1.482-2.977-1.152
			C182.438,35.402,182.107,36.39,182.438,37.872z M178.965,30.297c0.331,0.659,1.323,1.152,1.819,1.152
			c0.497,0,0.662-0.329,1.158-0.329c0.992-0.494,1.157-1.812,0.827-2.799c-1.488-2.634-3.142-5.269-5.127-7.244
			c-0.496-1.153-1.819-1.153-2.812-0.495c-0.827,0.659-1.158,2.141-0.331,2.964C176.153,25.687,177.642,27.992,178.965,30.297z
			 M100.735,17.619c0.662,0,1.158-0.165,1.488-0.33c2.15-1.976,4.3-3.622,6.45-5.269c0.993-0.658,1.158-1.811,0.497-2.634
			c-0.662-1.152-1.819-1.317-2.646-0.659c-2.646,1.482-4.962,3.293-6.946,5.434c-0.827,0.823-1.323,1.976-0.331,2.799
			C99.742,17.454,100.404,17.619,100.735,17.619z M83.203,46.434c0.331,0,0.331,0,0.496,0c0.993,0,1.819-0.658,2.15-1.646
			c0.662-2.635,1.489-5.104,2.646-7.739c0.331-0.988-0.331-2.306-1.323-2.8c-0.993-0.329-2.481,0-2.812,1.153
			c-1.158,2.799-1.985,5.598-2.646,8.562C81.384,44.952,82.046,46.105,83.203,46.434z M122.566,1.646
			c-2.977,0.823-5.623,1.647-8.435,2.964c-0.993,0.33-1.489,1.646-0.993,2.635c0.331,0.823,0.993,1.317,1.819,1.317
			c0.496,0,0.662,0,0.827-0.329c2.647-0.988,5.127-1.812,7.774-2.47c1.323-0.329,1.819-1.482,1.653-2.47
			C124.882,1.976,123.724,1.482,122.566,1.646z M111.154,111.311c2.646,1.152,5.293,2.306,8.104,3.293h0.496
			c0.827,0,1.819-0.658,2.15-1.481c0.166-0.988-0.331-2.47-1.489-2.8c-2.48-0.658-4.961-1.646-7.277-2.964
			c-1.158-0.658-2.315-0.164-3.142,0.823C109.666,109.17,109.997,110.486,111.154,111.311z M188.062,51.374
			c-0.993,0-1.819,0.988-1.819,2.141c0.165,1.646,0.165,3.293,0.165,4.939c0,2.635-0.165,5.599-0.331,8.233
			c-0.166,1.153,0.662,2.141,1.654,2.305c0.165,0,0.165,0,0.331,0c0.992,0,1.984-0.822,1.984-1.811
			c0.331-2.635,0.662-5.763,0.662-8.728c0-1.646,0-3.622-0.331-5.269C190.376,52.032,189.384,51.209,188.062,51.374z M89.158,30.627
			c0.331,0.165,0.496,0.165,0.992,0.165c0.827,0,1.488-0.494,1.819-0.988c1.323-2.305,2.977-4.446,4.631-6.751
			c0.662-0.987,0.662-2.305-0.331-2.964c-0.828-0.823-2.15-0.494-2.977,0.329c-1.654,2.306-3.308,4.775-4.796,7.246
			C87.834,28.651,88,29.968,89.158,30.627z M106.027,102.913c-2.15-1.482-4.135-3.294-6.12-5.269c-0.662-0.824-2.15-0.824-3.142,0
			c-0.827,0.987-0.827,2.14,0,2.963c2.315,2.141,4.465,3.952,6.781,5.929c0.331,0.164,0.827,0.164,1.158,0.164
			c0.662,0,1.323-0.164,1.819-0.823C107.351,105.054,107.02,103.735,106.027,102.913z M93.126,94.844
			c0.332,0,0.828-0.164,0.993-0.328c0.992-0.659,1.323-2.141,0.662-2.964c-1.654-2.306-2.977-4.61-4.3-7.081
			c-0.496-0.988-1.819-1.482-2.812-0.824c-1.158,0.329-1.489,1.647-0.827,2.799c1.157,2.8,2.646,5.105,4.3,7.41
			C91.638,94.516,92.3,94.844,93.126,94.844z M87.338,77.226c-0.992-2.634-1.82-5.433-2.15-8.233
			c-0.331-0.988-1.323-1.811-2.646-1.646c-0.992,0.329-1.819,1.482-1.654,2.47c0.662,2.964,1.323,5.928,2.315,8.562
			c0.331,0.824,1.158,1.482,1.985,1.482c0.166,0,0.331,0,0.662-0.165C87.173,79.202,87.669,78.214,87.338,77.226z M138.774,114.768
			c0-0.987-0.992-1.975-1.984-1.975h-1.323c-2.48,0-4.796,0-7.111-0.495c-0.993-0.164-2.15,0.66-2.316,1.977
			c-0.165,0.988,0.662,1.976,1.985,2.141c2.315,0.493,4.796,0.493,7.442,0.493h1.323
			C137.948,116.908,138.774,116.085,138.774,114.768z M82.046,63.23c0.165,0,0.165,0,0.165,0c0.992,0,2.15-0.824,1.82-2.306v-2.47
			c0-1.811,0.331-3.787,0.331-5.598c0.166-1.153-0.662-2.141-1.985-2.141c-0.993-0.165-1.985,0.659-1.985,1.812
			c-0.331,1.976-0.496,3.787-0.496,5.927v2.635C80.061,62.406,80.888,63.23,82.046,63.23z M186.903,73.109
			c-0.992-0.329-2.48,0.329-2.646,1.482c-0.827,2.799-1.985,5.269-2.977,7.575c-0.497,0.987,0,2.305,0.992,2.964
			c0.166,0,0.662,0.165,0.827,0.165c0.828,0,1.819-0.66,2.15-1.318c1.158-2.634,2.315-5.434,3.143-8.068
			C188.558,74.921,187.896,73.438,186.903,73.109z M158.125,7.41c0.496-0.988,0-2.305-1.158-2.635
			c-2.481-1.317-5.127-2.141-8.104-2.963c-0.993-0.165-2.481,0.494-2.646,1.482c-0.331,1.317,0.331,2.305,1.654,2.47
			c2.646,0.823,5.127,1.646,7.442,2.799c0.166,0.165,0.662,0.165,0.828,0.165C156.968,8.727,157.794,8.233,158.125,7.41z
			 M152.337,109.664c-2.315,0.822-5.127,1.812-7.608,2.305c-1.323,0.165-1.985,1.153-1.654,2.47
			c0.166,0.989,0.993,1.646,1.985,1.646c0,0,0.331,0,0.496,0c2.812-0.657,5.789-1.481,8.601-2.469
			c0.992-0.494,1.323-1.482,0.992-2.964C154.652,109.664,153.66,109.17,152.337,109.664z M180.288,88.752
			c-0.992-0.494-2.15-0.33-2.812,0.659c-1.654,2.305-3.142,4.445-4.961,6.422c-0.827,0.987-0.827,2.141,0.165,3.128
			c0.331,0.164,0.827,0.494,1.488,0.494c0.332,0,0.993-0.33,1.489-0.659c1.819-2.305,3.639-4.61,5.127-7.08
			C181.446,90.728,181.28,89.411,180.288,88.752z M244.297,102.913l-3.143-7.739c-0.496-0.988-1.653-1.481-2.646-0.988
			c-1.158,0.494-1.819,1.647-1.323,2.635l3.308,7.739c0.166,0.823,1.158,1.317,1.985,1.317c0.166,0,0.496,0,0.827-0.165
			C244.297,105.218,244.793,104.064,244.297,102.913z M275.556,48.081c-1.323-0.329-2.315,0-2.977,1.153l-3.142,7.575
			c-0.497,1.152,0,2.305,0.992,2.799c0.496,0.165,0.662,0.165,0.827,0.165c0.827,0,1.654-0.33,1.985-1.153l3.308-7.739
			C276.879,49.727,276.549,48.575,275.556,48.081z M266.625,73.933l3.474-7.739c0.331-0.988,0-2.305-1.324-2.634
			c-0.992-0.658-2.15,0-2.646,0.988l-3.142,7.739c-0.496,0.988,0,2.306,0.992,2.799c0.165,0,0.662,0.165,0.827,0.165
			C265.633,75.25,266.459,74.591,266.625,73.933z M282.006,32.768c-0.992-0.494-2.315,0-2.812,0.988l-3.308,7.739
			c-0.331,0.988,0,2.305,0.993,2.634c0.496,0.165,0.662,0.165,0.992,0.165c0.827,0,1.654-0.329,1.819-1.153l3.308-7.739
			C283.495,34.414,282.999,33.097,282.006,32.768z M262.325,78.708c-0.993-0.329-2.315,0.33-2.812,1.317l-3.142,7.739
			c-0.331,0.988,0,1.977,1.158,2.635h0.827c0.827,0,1.654-0.329,1.819-1.152l3.308-7.739
			C263.979,80.354,263.483,79.202,262.325,78.708z M286.142,27.663l3.308-7.739c0.496-0.988,0-1.977-0.992-2.635
			c-0.992-0.494-2.315,0.165-2.646,1.317l-3.473,7.574c-0.331,1.153,0,2.306,1.158,2.799h0.827
			C285.149,28.98,285.976,28.487,286.142,27.663z M294.907,2.141c-0.993-0.494-2.315,0-2.646,0.988l-3.308,7.739
			c-0.496,0.988,0,2.306,0.992,2.635c0.331,0.165,0.662,0.165,0.827,0.165c0.827,0,1.654-0.494,2.15-1.152l3.142-7.74
			C296.396,3.788,296.064,2.47,294.907,2.141z M224.781,56.808l-3.143-7.575c-0.496-1.153-1.654-1.482-2.812-1.153
			c-1.158,0.494-1.488,1.646-1.158,2.8l3.474,7.739c0.165,0.823,0.992,1.153,1.819,1.153c0.165,0,0.331,0,0.827-0.165
			C224.781,59.113,225.278,57.96,224.781,56.808z M217.339,44.129c0.993-0.329,1.488-1.646,0.993-2.634l-3.143-7.739
			c-0.661-0.988-1.653-1.482-2.977-0.988c-0.992,0.33-1.489,1.646-0.992,2.634l3.308,7.739c0.331,0.824,1.157,1.153,1.984,1.153
			C216.677,44.293,216.843,44.293,217.339,44.129z M205.431,10.867l-3.473-7.739c-0.331-0.988-1.654-1.482-2.646-0.988
			c-0.992,0.329-1.488,1.647-0.992,2.634l3.308,7.74c0.166,0.658,0.993,1.152,1.819,1.152c0.166,0,0.496,0,0.827-0.165
			C205.431,13.173,205.761,11.855,205.431,10.867z M209.896,28.98h0.827c1.158-0.493,1.489-1.646,1.158-2.799l-3.308-7.574
			c-0.496-1.152-1.819-1.811-2.812-1.317c-0.992,0.659-1.488,1.647-0.992,2.964l3.308,7.41
			C208.242,28.487,209.069,28.98,209.896,28.98z M245.29,115.921c0,0.164,0.166,0.164,0.331,0.329c0,0.165,0,0.165,0.165,0.165
			c0.166,0.164,0.332,0.329,0.662,0.493h1.488c0.662-0.329,1.158-0.987,1.323-1.646l1.323-2.965
			c0.497-0.987-0.166-2.305-1.323-2.634c-0.662-0.329-1.654-0.165-2.15,0.329c-0.661-0.494-1.488-0.658-2.15-0.329
			c-1.158,0.329-1.654,1.646-1.323,2.634l1.488,3.294C245.125,115.757,245.125,115.757,245.29,115.921z M236.69,90.398
			c1.157-0.658,1.488-1.646,1.157-2.635l-3.142-7.739c-0.497-0.988-1.654-1.646-2.812-1.317c-0.993,0.495-1.654,1.647-1.158,2.799
			l3.308,7.739c0.166,0.823,0.993,1.152,1.819,1.152H236.69z M255.875,94.186c-1.158-0.493-2.315,0-2.812,0.988l-3.143,7.739
			c-0.331,1.151,0,2.305,1.158,2.799c0.166,0.165,0.496,0.165,0.827,0.165c0.827,0,1.654-0.494,1.819-1.317l3.308-7.739
			C257.529,95.833,256.867,94.68,255.875,94.186z M229.412,75.25c0.166,0,0.662-0.165,0.827-0.165
			c1.158-0.494,1.488-1.811,1.158-2.799l-3.143-7.739c-0.661-0.988-1.819-1.646-2.812-0.988c-1.323,0.33-1.654,1.646-1.323,2.634
			l3.474,7.739C227.759,74.591,228.585,75.25,229.412,75.25z M334.274,5.763h8.27c1.323,0,2.15-0.988,2.15-1.976
			c0-1.318-0.827-2.141-2.15-2.141h-8.27c-1.157,0-2.15,0.823-2.15,2.141C332.125,4.775,333.117,5.763,334.274,5.763z M367.85,5.763
			h8.27c1.322,0,2.15-0.988,2.15-1.976c0-1.318-0.828-2.141-2.15-2.141h-8.27c-1.158,0-2.15,0.823-2.15,2.141
			C365.699,4.775,366.691,5.763,367.85,5.763z M367.85,61.418h3.969c1.157,0,1.984-0.824,1.984-2.141
			c0-0.988-0.827-2.141-1.984-2.141h-3.969c-1.158,0-2.15,1.153-2.15,2.141C365.699,60.595,366.691,61.418,367.85,61.418z
			 M367.85,116.908h8.27c1.322,0,2.15-0.823,2.15-2.141c0-0.987-0.828-1.975-2.15-1.975h-8.27c-1.158,0-2.15,0.987-2.15,1.975
			C365.699,116.085,366.691,116.908,367.85,116.908z M344.694,114.768c0-0.987-0.827-1.975-2.15-1.975h-8.27
			c-1.157,0-2.15,0.987-2.15,1.975c0,1.317,0.993,2.141,2.15,2.141h8.27C343.867,116.908,344.694,116.085,344.694,114.768z
			 M359.414,1.646h-8.435c-0.992,0-2.15,0.823-2.15,2.141c0,0.987,1.158,1.976,2.15,1.976h8.435c1.158,0,2.15-0.988,2.15-1.976
			C361.564,2.47,360.572,1.646,359.414,1.646z M359.414,57.137h-8.435c-0.992,0-2.15,1.153-2.15,2.141
			c0,1.317,1.158,2.141,2.15,2.141h8.435c1.158,0,2.15-0.824,2.15-2.141C361.564,58.29,360.572,57.137,359.414,57.137z
			 M359.414,112.793h-8.435c-0.992,0-2.15,0.987-2.15,1.975c0,1.317,1.158,2.141,2.15,2.141h8.435c1.158,0,2.15-0.823,2.15-2.141
			C361.564,113.78,360.572,112.793,359.414,112.793z M317.074,14.161c1.157,0,1.985-0.988,1.985-2.141V5.763h6.781
			c1.323,0,2.15-0.988,2.15-1.976c0-1.318-0.827-2.141-2.15-2.141h-8.766c-1.158,0-2.15,0.823-2.15,2.141v8.232
			C314.924,13.173,315.916,14.161,317.074,14.161z M317.074,64.218c1.157,0,1.985-0.988,1.985-1.976v-0.823h6.781
			c1.323,0,2.15-0.824,2.15-2.141c0-0.988-0.827-2.141-2.15-2.141h-6.781v-3.293c0-1.317-0.828-2.141-1.985-2.141
			c-1.158,0-2.15,0.824-2.15,2.141v8.398C314.924,63.23,315.916,64.218,317.074,64.218z M317.074,97.645
			c1.157,0,1.985-0.988,1.985-1.977v-8.397c0-1.317-0.828-2.141-1.985-2.141c-1.158,0-2.15,0.823-2.15,2.141v8.397
			C314.924,96.656,315.916,97.645,317.074,97.645z M317.074,47.587c1.157,0,1.985-0.988,1.985-2.141v-8.233
			c0-1.317-0.828-2.141-1.985-2.141c-1.158,0-2.15,0.823-2.15,2.141v8.233C314.924,46.599,315.916,47.587,317.074,47.587z
			 M317.074,81.013c1.157,0,1.985-0.988,1.985-2.141v-8.397c0-1.152-0.828-1.976-1.985-1.976c-1.158,0-2.15,0.823-2.15,1.976v8.397
			C314.924,80.025,315.916,81.013,317.074,81.013z M315.42,114.768c0,1.317,0.992,2.141,1.985,2.141h8.435
			c1.323,0,2.15-0.823,2.15-2.141c0-0.987-0.827-1.975-2.15-1.975h-6.947c0-0.166,0.166-0.33,0.166-0.495V103.9
			c0-1.152-0.828-1.977-1.985-1.977c-1.158,0-2.15,0.824-2.15,1.977v8.397c0,0.66,0.166,1.153,0.662,1.647
			C315.42,114.109,315.42,114.438,315.42,114.768z M334.274,61.418h8.27c1.323,0,2.15-0.824,2.15-2.141
			c0-0.988-0.827-2.141-2.15-2.141h-8.27c-1.157,0-2.15,1.153-2.15,2.141C332.125,60.595,333.117,61.418,334.274,61.418z
			 M317.074,30.957c1.157,0,1.985-1.153,1.985-2.141v-8.398c0-1.152-0.828-2.141-1.985-2.141c-1.158,0-2.15,0.989-2.15,2.141v8.398
			C314.924,29.804,315.916,30.957,317.074,30.957z M405.229,14.161c1.158,0,1.985-0.988,1.985-2.141V3.788
			c0-1.318-0.827-2.141-1.985-2.141c-1.157,0-2.15,0.823-2.15,2.141v8.232C403.078,13.173,404.071,14.161,405.229,14.161z
			 M432.85,114.768c0-0.987-0.992-1.975-2.15-1.975h-8.27c-1.323,0-2.15,0.987-2.15,1.975c0,1.317,0.827,2.141,2.15,2.141h8.27
			C431.857,116.908,432.85,116.085,432.85,114.768z M447.568,112.793h-8.435c-1.158,0-2.15,0.987-2.15,1.975
			c0,1.317,0.992,2.141,2.15,2.141h8.435c0.993,0,2.15-0.823,2.15-2.141C449.719,113.78,448.562,112.793,447.568,112.793z
			 M405.229,97.645c1.158,0,1.985-0.988,1.985-1.977v-8.397c0-1.317-0.827-2.141-1.985-2.141c-1.157,0-2.15,0.823-2.15,2.141v8.397
			C403.078,96.656,404.071,97.645,405.229,97.645z M405.229,81.013c1.158,0,1.985-0.988,1.985-2.141v-8.397
			c0-1.152-0.827-1.976-1.985-1.976c-1.157,0-2.15,0.823-2.15,1.976v8.397C403.078,80.025,404.071,81.013,405.229,81.013z
			 M405.229,30.957c1.158,0,1.985-1.153,1.985-2.141v-8.398c0-1.152-0.827-2.141-1.985-2.141c-1.157,0-2.15,0.989-2.15,2.141v8.398
			C403.078,29.804,404.071,30.957,405.229,30.957z M403.575,114.768c0,1.317,0.827,2.141,1.984,2.141h8.436
			c0.992,0,2.149-0.823,2.149-2.141c0-0.987-1.157-1.975-2.149-1.975h-6.947c0-0.166,0.166-0.33,0.166-0.495V103.9
			c0-1.152-0.827-1.977-1.985-1.977c-1.157,0-2.15,0.824-2.15,1.977v8.397c0,0.66,0.166,1.153,0.662,1.647
			C403.575,114.109,403.575,114.438,403.575,114.768z M405.229,64.218c1.158,0,1.985-0.988,1.985-1.976v-8.398
			c0-1.317-0.827-2.141-1.985-2.141c-1.157,0-2.15,0.824-2.15,2.141v8.398C403.078,63.23,404.071,64.218,405.229,64.218z
			 M405.229,47.587c1.158,0,1.985-0.988,1.985-2.141v-8.233c0-1.317-0.827-2.141-1.985-2.141c-1.157,0-2.15,0.823-2.15,2.141v8.233
			C403.078,46.599,404.071,47.587,405.229,47.587z M456.004,116.908h8.27c1.157,0,2.15-0.823,2.15-2.141
			c0-0.987-0.993-1.975-2.15-1.975h-8.27c-1.323,0-2.15,0.987-2.15,1.975C453.854,116.085,454.681,116.908,456.004,116.908z
			 M492.555,114.768v-8.562c0-1.316-1.158-2.141-2.15-2.141c-1.322,0-2.149,0.824-2.149,2.141v8.562
			c0,1.153,0.827,2.141,2.149,2.141C491.396,116.908,492.555,115.921,492.555,114.768z M490.404,48.575
			c0.992,0,2.15-0.988,2.15-2.141v-8.562c0-1.152-1.158-2.141-2.15-2.141c-1.322,0-2.149,0.988-2.149,2.141v8.562
			C488.255,47.587,489.082,48.575,490.404,48.575z M490.404,65.7c0.992,0,2.15-1.153,2.15-2.141v-8.562
			c0-1.317-1.158-2.141-2.15-2.141c-1.322,0-2.149,0.823-2.149,2.141v8.562C488.255,64.547,489.082,65.7,490.404,65.7z
			 M490.404,31.45c0.992,0,2.15-0.988,2.15-1.976v-8.562c0-1.317-1.158-2.141-2.15-2.141c-1.322,0-2.149,0.824-2.149,2.141v8.562
			C488.255,30.462,489.082,31.45,490.404,31.45z M490.404,14.49c0.992,0,2.15-1.153,2.15-2.141V3.788
			c0-1.318-1.158-2.141-2.15-2.141c-1.322,0-2.149,0.823-2.149,2.141v8.562C488.255,13.337,489.082,14.49,490.404,14.49z
			 M490.404,82.824c0.992,0,2.15-1.152,2.15-2.14v-8.562c0-1.317-1.158-2.14-2.15-2.14c-1.322,0-2.149,0.823-2.149,2.14v8.562
			C488.255,81.672,489.082,82.824,490.404,82.824z M490.404,99.784c0.992,0,2.15-0.988,2.15-2.14v-8.562
			c0-1.153-1.158-1.977-2.15-1.977c-1.322,0-2.149,0.823-2.149,1.977v8.562C488.255,98.796,489.082,99.784,490.404,99.784z
			 M572.77,90.398h0.827c0.826,0,1.653-0.329,1.819-1.152l3.308-7.739c0.496-1.152,0-2.305-1.157-2.799
			c-0.993-0.329-2.316,0.33-2.812,1.317l-3.143,7.739C571.281,88.752,571.611,89.74,572.77,90.398z M545.977,81.507l3.308,7.739
			c0.165,0.823,0.992,1.152,1.819,1.152h0.827c1.157-0.658,1.488-1.646,1.157-2.635l-3.143-7.739
			c-0.496-0.988-1.653-1.646-2.812-1.317C546.142,79.202,545.48,80.354,545.977,81.507z M520.01,20.253l3.309,7.41
			c0.164,0.824,0.992,1.317,1.819,1.317h0.826c1.157-0.493,1.488-1.646,1.157-2.799l-3.308-7.574
			c-0.495-1.152-1.818-1.811-2.812-1.317C520.01,17.948,519.514,18.936,520.01,20.253z M579.22,75.085
			c0.165,0,0.661,0.165,0.827,0.165c0.826,0,1.654-0.659,1.819-1.317l3.474-7.739c0.33-0.988,0-2.305-1.324-2.634
			c-0.992-0.658-2.149,0-2.646,0.988l-3.143,7.739C577.731,73.274,578.228,74.591,579.22,75.085z M590.797,48.081
			c-1.323-0.329-2.315,0-2.977,1.153l-3.143,7.575c-0.496,1.152,0,2.305,0.992,2.799c0.496,0.165,0.662,0.165,0.826,0.165
			c0.828,0,1.655-0.33,1.985-1.153l3.309-7.739C592.121,49.727,591.79,48.575,590.797,48.081z M611.306,4.775
			c0.331-0.987,0-2.305-1.158-2.634c-0.992-0.494-2.314,0-2.646,0.988l-3.308,7.739c-0.497,0.988,0,2.306,0.992,2.635
			c0.33,0.165,0.661,0.165,0.827,0.165c0.826,0,1.653-0.494,2.15-1.152L611.306,4.775z M597.247,32.768
			c-0.992-0.494-2.314,0-2.812,0.988l-3.307,7.739c-0.332,0.988,0,2.305,0.992,2.634c0.495,0.165,0.661,0.165,0.992,0.165
			c0.827,0,1.653-0.329,1.819-1.153l3.308-7.739C598.736,34.414,598.24,33.097,597.247,32.768z M598.736,28.98h0.827
			c0.826,0,1.653-0.493,1.819-1.317l3.307-7.739c0.497-0.988,0-1.977-0.992-2.635c-0.992-0.494-2.314,0.165-2.646,1.317
			l-3.474,7.574C597.247,27.333,597.578,28.487,598.736,28.98z M560.53,115.921c0,0.164,0.166,0.164,0.331,0.329
			c0,0.165,0,0.165,0.166,0.165c0.165,0.164,0.33,0.329,0.661,0.493h1.488c0.662-0.329,1.158-0.987,1.323-1.646l1.322-2.965
			c0.497-0.987-0.164-2.305-1.322-2.634c-0.661-0.329-1.653-0.165-2.15,0.329c-0.661-0.494-1.488-0.658-2.15-0.329
			c-1.156,0.329-1.653,1.646-1.322,2.634l1.488,3.294C560.365,115.757,560.365,115.757,560.53,115.921z M544.653,75.25
			c0.165,0,0.661-0.165,0.827-0.165c1.157-0.494,1.487-1.811,1.157-2.799l-3.143-7.739c-0.661-0.988-1.819-1.646-2.812-0.988
			c-1.322,0.33-1.653,1.646-1.322,2.634l3.473,7.739C543,74.591,543.826,75.25,544.653,75.25z M520.671,10.867l-3.473-7.739
			c-0.331-0.988-1.653-1.482-2.646-0.988c-0.992,0.329-1.488,1.647-0.992,2.634l3.308,7.74c0.166,0.658,0.992,1.152,1.819,1.152
			c0.165,0,0.496,0,0.827-0.165C520.671,13.173,521.002,11.855,520.671,10.867z M540.022,56.808l-3.143-7.575
			c-0.496-1.153-1.654-1.482-2.812-1.153c-1.158,0.494-1.488,1.646-1.158,2.8l3.474,7.739c0.165,0.823,0.992,1.153,1.819,1.153
			c0.166,0,0.33,0,0.827-0.165C540.022,59.113,540.519,57.96,540.022,56.808z M531.753,44.293c0.165,0,0.33,0,0.827-0.165
			c0.992-0.329,1.488-1.646,0.992-2.634l-3.143-7.739c-0.661-0.988-1.654-1.482-2.978-0.988c-0.992,0.33-1.488,1.646-0.992,2.634
			l3.309,7.739C530.099,43.964,530.926,44.293,531.753,44.293z M559.538,102.913l-3.143-7.739c-0.496-0.988-1.653-1.481-2.646-0.988
			c-1.157,0.494-1.818,1.647-1.322,2.635l3.308,7.739c0.165,0.823,1.158,1.317,1.984,1.317c0.166,0,0.496,0,0.827-0.165
			C559.538,105.218,560.035,104.064,559.538,102.913z M572.273,96.82c0.496-0.987-0.165-2.141-1.157-2.635
			c-1.158-0.493-2.316,0-2.812,0.988l-3.144,7.739c-0.331,1.151,0,2.305,1.158,2.799c0.166,0.165,0.496,0.165,0.827,0.165
			c0.826,0,1.653-0.494,1.819-1.317L572.273,96.82z M674.655,57.137h-8.435c-0.993,0-2.151,1.153-2.151,2.141
			c0,1.317,1.158,2.141,2.151,2.141h8.435c1.158,0,2.15-0.824,2.15-2.141C676.806,58.29,675.813,57.137,674.655,57.137z
			 M674.655,112.793h-8.435c-0.993,0-2.151,0.987-2.151,1.975c0,1.317,1.158,2.141,2.151,2.141h8.435c1.158,0,2.15-0.823,2.15-2.141
			C676.806,113.78,675.813,112.793,674.655,112.793z M632.315,14.161c1.157,0,1.984-0.988,1.984-2.141V5.763h6.781
			c1.322,0,2.149-0.988,2.149-1.976c0-1.318-0.827-2.141-2.149-2.141h-8.766c-1.158,0-2.15,0.823-2.15,2.141v8.232
			C630.165,13.173,631.157,14.161,632.315,14.161z M649.516,116.908h8.27c1.322,0,2.15-0.823,2.15-2.141
			c0-0.987-0.828-1.975-2.15-1.975h-8.27c-1.157,0-2.15,0.987-2.15,1.975C647.365,116.085,648.358,116.908,649.516,116.908z
			 M632.315,97.645c1.157,0,1.984-0.988,1.984-1.977v-8.397c0-1.317-0.827-2.141-1.984-2.141c-1.158,0-2.15,0.823-2.15,2.141v8.397
			C630.165,96.656,631.157,97.645,632.315,97.645z M632.315,81.013c1.157,0,1.984-0.988,1.984-2.141v-8.397
			c0-1.152-0.827-1.976-1.984-1.976c-1.158,0-2.15,0.823-2.15,1.976v8.397C630.165,80.025,631.157,81.013,632.315,81.013z
			 M632.315,47.587c1.157,0,1.984-0.988,1.984-2.141v-8.233c0-1.317-0.827-2.141-1.984-2.141c-1.158,0-2.15,0.823-2.15,2.141v8.233
			C630.165,46.599,631.157,47.587,632.315,47.587z M630.661,114.768c0,1.317,0.992,2.141,1.985,2.141h8.435
			c1.322,0,2.149-0.823,2.149-2.141c0-0.987-0.827-1.975-2.149-1.975h-6.946c0-0.166,0.165-0.33,0.165-0.495V103.9
			c0-1.152-0.827-1.977-1.984-1.977c-1.158,0-2.15,0.824-2.15,1.977v8.397c0,0.66,0.165,1.153,0.661,1.647
			C630.661,114.109,630.661,114.438,630.661,114.768z M674.655,1.646h-8.435c-0.993,0-2.151,0.823-2.151,2.141
			c0,0.987,1.158,1.976,2.151,1.976h8.435c1.158,0,2.15-0.988,2.15-1.976C676.806,2.47,675.813,1.646,674.655,1.646z M649.516,5.763
			h8.27c1.322,0,2.15-0.988,2.15-1.976c0-1.318-0.828-2.141-2.15-2.141h-8.27c-1.157,0-2.15,0.823-2.15,2.141
			C647.365,4.775,648.358,5.763,649.516,5.763z M683.09,116.908h8.27c1.323,0,2.15-0.823,2.15-2.141c0-0.987-0.827-1.975-2.15-1.975
			h-8.27c-1.158,0-2.15,0.987-2.15,1.975C680.939,116.085,681.932,116.908,683.09,116.908z M649.516,61.418h8.27
			c1.322,0,2.15-0.824,2.15-2.141c0-0.988-0.828-2.141-2.15-2.141h-8.27c-1.157,0-2.15,1.153-2.15,2.141
			C647.365,60.595,648.358,61.418,649.516,61.418z M632.315,30.957c1.157,0,1.984-1.153,1.984-2.141v-8.398
			c0-1.152-0.827-2.141-1.984-2.141c-1.158,0-2.15,0.989-2.15,2.141v8.398C630.165,29.804,631.157,30.957,632.315,30.957z
			 M632.315,64.218c1.157,0,1.984-0.988,1.984-1.976v-0.823h6.781c1.322,0,2.149-0.824,2.149-2.141c0-0.988-0.827-2.141-2.149-2.141
			H634.3v-3.293c0-1.317-0.827-2.141-1.984-2.141c-1.158,0-2.15,0.824-2.15,2.141v8.398
			C630.165,63.23,631.157,64.218,632.315,64.218z M683.09,61.418h3.97c1.157,0,1.984-0.824,1.984-2.141
			c0-0.988-0.827-2.141-1.984-2.141h-3.97c-1.158,0-2.15,1.153-2.15,2.141C680.939,60.595,681.932,61.418,683.09,61.418z
			 M683.09,5.763h8.27c1.323,0,2.15-0.988,2.15-1.976c0-1.318-0.827-2.141-2.15-2.141h-8.27c-1.158,0-2.15,0.823-2.15,2.141
			C680.939,4.775,681.932,5.763,683.09,5.763z M718.65,24.864c0.992,0,1.984-0.988,1.984-2.141v-8.397
			c0-1.153-0.992-1.976-1.984-1.976c-1.323,0-2.15,0.823-2.15,1.976v8.397C716.5,23.875,717.327,24.864,718.65,24.864z
			 M718.65,41.495c0.992,0,1.984-0.824,1.984-2.141v-8.397c0-1.153-0.992-1.977-1.984-1.977c-1.323,0-2.15,0.824-2.15,1.977v8.397
			C716.5,40.671,717.327,41.495,718.65,41.495z M718.65,91.552c0.992,0,1.984-0.824,1.984-2.141v-8.398
			c0-1.152-0.992-1.976-1.984-1.976c-1.323,0-2.15,0.823-2.15,1.976v8.398C716.5,90.728,717.327,91.552,718.65,91.552z
			 M718.65,116.908c0.992,0,1.984-0.987,1.984-2.141v-3.95c0-1.153-0.992-1.977-1.984-1.977c-1.323,0-2.15,0.823-2.15,1.977v3.95
			C716.5,115.921,717.327,116.908,718.65,116.908z M718.65,74.756c0.992,0,1.984-0.823,1.984-1.976v-8.398
			c0-1.317-0.992-2.141-1.984-2.141c-1.323,0-2.15,0.823-2.15,2.141v8.398C716.5,73.933,717.327,74.756,718.65,74.756z
			 M718.65,58.125c0.992,0,1.984-0.823,1.984-2.141v-8.233c0-1.317-0.992-2.14-1.984-2.14c-1.323,0-2.15,0.823-2.15,2.14v8.233
			C716.5,57.302,717.327,58.125,718.65,58.125z M718.65,8.068c0.992,0,1.984-0.823,1.984-1.976V3.788
			c0-1.153-0.992-2.141-1.984-2.141c-1.323,0-2.15,0.988-2.15,2.141v2.305C716.5,7.246,717.327,8.068,718.65,8.068z M15.547,155.468
			H10.75c-0.497,0-1.158,0.823-1.158,1.812s0.661,1.646,1.158,1.646h4.796c0.827,0,1.323-0.658,1.323-1.646
			S16.374,155.468,15.547,155.468z M25.14,155.468h-4.796c-0.496,0-1.158,0.823-1.158,1.812s0.662,1.646,1.158,1.646h4.796
			c0.827,0,1.323-0.658,1.323-1.646S25.966,155.468,25.14,155.468z M5.954,155.468H1.158c-0.497,0-1.158,0.823-1.158,1.812
			s0.662,1.646,1.158,1.646h4.796c0.827,0,1.323-0.658,1.323-1.646S6.781,155.468,5.954,155.468z M35.393,155.468h-4.796
			c-0.496,0-1.157,0.823-1.157,1.812s0.661,1.646,1.157,1.646h4.796c0.827,0,1.323-0.658,1.323-1.646S36.22,155.468,35.393,155.468z
			 M44.986,155.468h-4.796c-0.496,0-1.158,0.823-1.158,1.812s0.662,1.646,1.158,1.646h4.796c0.827,0,1.323-0.658,1.323-1.646
			S45.813,155.468,44.986,155.468z M54.579,155.468h-4.796c-0.497,0-1.158,0.823-1.158,1.812s0.661,1.646,1.158,1.646h4.796
			c0.827,0,1.323-0.658,1.323-1.646S55.405,155.468,54.579,155.468z M74.425,155.468h-4.796c-0.496,0-1.157,0.823-1.157,1.812
			s0.661,1.646,1.157,1.646h4.796c0.827,0,1.323-0.658,1.323-1.646S75.251,155.468,74.425,155.468z M64.832,155.468h-4.796
			c-0.496,0-1.158,0.823-1.158,1.812s0.662,1.646,1.158,1.646h4.796c0.827,0,1.323-0.658,1.323-1.646S65.659,155.468,64.832,155.468
			z M84.018,155.468h-4.796c-0.496,0-1.158,0.823-1.158,1.812s0.662,1.646,1.158,1.646h4.796c0.827,0,1.323-0.658,1.323-1.646
			S84.844,155.468,84.018,155.468z M94.271,155.468h-4.796c-0.496,0-1.157,0.823-1.157,1.812s0.661,1.646,1.157,1.646h4.796
			c0.827,0,1.323-0.658,1.323-1.646S95.098,155.468,94.271,155.468z M103.864,155.468h-4.797c-0.496,0-1.158,0.823-1.158,1.812
			s0.662,1.646,1.158,1.646h4.797c0.827,0,1.323-0.658,1.323-1.646S104.691,155.468,103.864,155.468z M113.457,155.468h-4.796
			c-0.496,0-1.158,0.823-1.158,1.812s0.662,1.646,1.158,1.646h4.796c0.827,0,1.323-0.658,1.323-1.646
			S114.283,155.468,113.457,155.468z M142.896,155.468h-4.796c-0.496,0-1.158,0.823-1.158,1.812s0.662,1.646,1.158,1.646h4.796
			c0.827,0,1.323-0.658,1.323-1.646S143.723,155.468,142.896,155.468z M123.71,155.468h-4.796c-0.496,0-1.158,0.823-1.158,1.812
			s0.662,1.646,1.158,1.646h4.796c0.827,0,1.324-0.658,1.324-1.646S124.537,155.468,123.71,155.468z M133.303,155.468h-4.796
			c-0.496,0-1.157,0.823-1.157,1.812s0.661,1.646,1.157,1.646h4.796c0.827,0,1.323-0.658,1.323-1.646
			S134.13,155.468,133.303,155.468z M172.334,155.468h-4.796c-0.496,0-1.158,0.823-1.158,1.812s0.662,1.646,1.158,1.646h4.796
			c0.827,0,1.323-0.658,1.323-1.646S173.161,155.468,172.334,155.468z M162.742,155.468h-4.796c-0.497,0-1.158,0.823-1.158,1.812
			s0.662,1.646,1.158,1.646h4.796c0.827,0,1.323-0.658,1.323-1.646S163.569,155.468,162.742,155.468z M153.149,155.468h-4.796
			c-0.497,0-1.158,0.823-1.158,1.812s0.661,1.646,1.158,1.646h4.796c0.827,0,1.323-0.658,1.323-1.646
			S153.976,155.468,153.149,155.468z M201.774,155.468h-4.796c-0.497,0-1.158,0.823-1.158,1.812s0.662,1.646,1.158,1.646h4.796
			c0.827,0,1.323-0.658,1.323-1.646S202.601,155.468,201.774,155.468z M192.181,155.468h-4.796c-0.497,0-1.158,0.823-1.158,1.812
			s0.661,1.646,1.158,1.646h4.796c0.827,0,1.323-0.658,1.323-1.646S193.008,155.468,192.181,155.468z M182.588,155.468h-4.796
			c-0.496,0-1.158,0.823-1.158,1.812s0.662,1.646,1.158,1.646h4.796c0.828,0,1.324-0.658,1.324-1.646
			S183.416,155.468,182.588,155.468z M212.027,155.468h-4.796c-0.496,0-1.157,0.823-1.157,1.812s0.661,1.646,1.157,1.646h4.796
			c0.827,0,1.323-0.658,1.323-1.646S212.854,155.468,212.027,155.468z M231.212,155.468h-4.796c-0.496,0-1.157,0.823-1.157,1.812
			s0.661,1.646,1.157,1.646h4.796c0.827,0,1.323-0.658,1.323-1.646S232.04,155.468,231.212,155.468z M221.62,155.468h-4.796
			c-0.496,0-1.158,0.823-1.158,1.812s0.662,1.646,1.158,1.646h4.796c0.827,0,1.323-0.658,1.323-1.646
			S222.447,155.468,221.62,155.468z M241.466,155.468h-4.796c-0.496,0-1.158,0.823-1.158,1.812s0.662,1.646,1.158,1.646h4.796
			c0.827,0,1.323-0.658,1.323-1.646S242.293,155.468,241.466,155.468z M251.059,155.468h-4.796c-0.497,0-1.158,0.823-1.158,1.812
			s0.661,1.646,1.158,1.646h4.796c0.827,0,1.323-0.658,1.323-1.646S251.886,155.468,251.059,155.468z M260.652,155.468h-4.796
			c-0.496,0-1.158,0.823-1.158,1.812s0.662,1.646,1.158,1.646h4.796c0.827,0,1.323-0.658,1.323-1.646
			S261.479,155.468,260.652,155.468z M270.905,155.468h-4.796c-0.496,0-1.157,0.823-1.157,1.812s0.661,1.646,1.157,1.646h4.796
			c0.827,0,1.323-0.658,1.323-1.646S271.732,155.468,270.905,155.468z M280.498,155.468h-4.796c-0.496,0-1.158,0.823-1.158,1.812
			s0.662,1.646,1.158,1.646h4.796c0.827,0,1.323-0.658,1.323-1.646S281.325,155.468,280.498,155.468z M290.091,155.468h-4.797
			c-0.496,0-1.157,0.823-1.157,1.812s0.661,1.646,1.157,1.646h4.797c0.827,0,1.323-0.658,1.323-1.646
			S290.917,155.468,290.091,155.468z M300.344,155.468h-4.796c-0.497,0-1.158,0.823-1.158,1.812s0.662,1.646,1.158,1.646h4.796
			c0.827,0,1.323-0.658,1.323-1.646S301.171,155.468,300.344,155.468z M309.937,155.468h-4.796c-0.496,0-1.158,0.823-1.158,1.812
			s0.662,1.646,1.158,1.646h4.796c0.827,0,1.323-0.658,1.323-1.646S310.764,155.468,309.937,155.468z M319.53,155.468h-4.796
			c-0.496,0-1.158,0.823-1.158,1.812s0.662,1.646,1.158,1.646h4.796c0.827,0,1.323-0.658,1.323-1.646
			S320.356,155.468,319.53,155.468z M329.783,155.468h-4.796c-0.496,0-1.157,0.823-1.157,1.812s0.661,1.646,1.157,1.646h4.796
			c0.827,0,1.323-0.658,1.323-1.646S330.61,155.468,329.783,155.468z M339.376,155.468h-4.797c-0.496,0-1.158,0.823-1.158,1.812
			s0.662,1.646,1.158,1.646h4.797c0.827,0,1.323-0.658,1.323-1.646S340.203,155.468,339.376,155.468z M348.969,155.468h-4.796
			c-0.497,0-1.158,0.823-1.158,1.812s0.661,1.646,1.158,1.646h4.796c0.827,0,1.323-0.658,1.323-1.646
			S349.795,155.468,348.969,155.468z M378.407,155.468h-4.796c-0.496,0-1.157,0.823-1.157,1.812s0.661,1.646,1.157,1.646h4.796
			c0.827,0,1.323-0.658,1.323-1.646S379.234,155.468,378.407,155.468z M368.815,155.468h-4.797c-0.496,0-1.157,0.823-1.157,1.812
			s0.661,1.646,1.157,1.646h4.797c0.827,0,1.322-0.658,1.322-1.646S369.643,155.468,368.815,155.468z M359.222,155.468h-4.796
			c-0.496,0-1.158,0.823-1.158,1.812s0.662,1.646,1.158,1.646h4.796c0.827,0,1.324-0.658,1.324-1.646
			S360.049,155.468,359.222,155.468z M398.254,155.468h-4.797c-0.495,0-1.156,0.823-1.156,1.812s0.661,1.646,1.156,1.646h4.797
			c0.827,0,1.323-0.658,1.323-1.646S399.081,155.468,398.254,155.468z M407.847,155.468h-4.797c-0.495,0-1.157,0.823-1.157,1.812
			s0.662,1.646,1.157,1.646h4.797c0.827,0,1.323-0.658,1.323-1.646S408.674,155.468,407.847,155.468z M388.661,155.468h-4.796
			c-0.496,0-1.157,0.823-1.157,1.812s0.661,1.646,1.157,1.646h4.796c0.827,0,1.323-0.658,1.323-1.646
			S389.488,155.468,388.661,155.468z M437.286,155.468h-4.797c-0.496,0-1.158,0.823-1.158,1.812s0.662,1.646,1.158,1.646h4.797
			c0.826,0,1.322-0.658,1.322-1.646S438.112,155.468,437.286,155.468z M427.693,155.468h-4.797c-0.495,0-1.158,0.823-1.158,1.812
			s0.663,1.646,1.158,1.646h4.797c0.826,0,1.323-0.658,1.323-1.646S428.52,155.468,427.693,155.468z M418.101,155.468h-4.797
			c-0.496,0-1.157,0.823-1.157,1.812s0.661,1.646,1.157,1.646h4.797c0.826,0,1.323-0.658,1.323-1.646
			S418.927,155.468,418.101,155.468z M466.726,155.468h-4.797c-0.497,0-1.158,0.823-1.158,1.812s0.661,1.646,1.158,1.646h4.797
			c0.826,0,1.322-0.658,1.322-1.646S467.552,155.468,466.726,155.468z M457.133,155.468h-4.797c-0.497,0-1.158,0.823-1.158,1.812
			s0.661,1.646,1.158,1.646h4.797c0.826,0,1.322-0.658,1.322-1.646S457.959,155.468,457.133,155.468z M447.539,155.468h-4.796
			c-0.496,0-1.158,0.823-1.158,1.812s0.662,1.646,1.158,1.646h4.796c0.827,0,1.324-0.658,1.324-1.646
			S448.366,155.468,447.539,155.468z M476.979,155.468h-4.796c-0.497,0-1.158,0.823-1.158,1.812s0.661,1.646,1.158,1.646h4.796
			c0.827,0,1.323-0.658,1.323-1.646S477.806,155.468,476.979,155.468z M486.571,155.468h-4.796c-0.497,0-1.158,0.823-1.158,1.812
			s0.661,1.646,1.158,1.646h4.796c0.827,0,1.323-0.658,1.323-1.646S487.398,155.468,486.571,155.468z M496.163,155.468h-4.796
			c-0.496,0-1.157,0.823-1.157,1.812s0.661,1.646,1.157,1.646h4.796c0.827,0,1.324-0.658,1.324-1.646
			S496.99,155.468,496.163,155.468z M506.418,155.468h-4.796c-0.497,0-1.158,0.823-1.158,1.812s0.661,1.646,1.158,1.646h4.796
			c0.827,0,1.322-0.658,1.322-1.646S507.245,155.468,506.418,155.468z M516.01,155.468h-4.796c-0.496,0-1.157,0.823-1.157,1.812
			s0.661,1.646,1.157,1.646h4.796c0.827,0,1.323-0.658,1.323-1.646S516.837,155.468,516.01,155.468z M525.603,155.468h-4.796
			c-0.496,0-1.158,0.823-1.158,1.812s0.662,1.646,1.158,1.646h4.796c0.827,0,1.324-0.658,1.324-1.646
			S526.43,155.468,525.603,155.468z M535.856,155.468h-4.797c-0.495,0-1.156,0.823-1.156,1.812s0.661,1.646,1.156,1.646h4.797
			c0.827,0,1.323-0.658,1.323-1.646S536.684,155.468,535.856,155.468z M555.042,155.468h-4.796c-0.496,0-1.158,0.823-1.158,1.812
			s0.662,1.646,1.158,1.646h4.796c0.827,0,1.323-0.658,1.323-1.646S555.869,155.468,555.042,155.468z M545.449,155.468h-4.796
			c-0.496,0-1.158,0.823-1.158,1.812s0.662,1.646,1.158,1.646h4.796c0.827,0,1.323-0.658,1.323-1.646
			S546.276,155.468,545.449,155.468z M574.889,155.468h-4.797c-0.496,0-1.157,0.823-1.157,1.812s0.661,1.646,1.157,1.646h4.797
			c0.827,0,1.322-0.658,1.322-1.646S575.716,155.468,574.889,155.468z M565.296,155.468h-4.797c-0.495,0-1.157,0.823-1.157,1.812
			s0.662,1.646,1.157,1.646h4.797c0.826,0,1.323-0.658,1.323-1.646S566.122,155.468,565.296,155.468z M584.481,155.468h-4.796
			c-0.497,0-1.158,0.823-1.158,1.812s0.661,1.646,1.158,1.646h4.796c0.827,0,1.322-0.658,1.322-1.646
			S585.309,155.468,584.481,155.468z M613.92,155.468h-4.797c-0.495,0-1.156,0.823-1.156,1.812s0.661,1.646,1.156,1.646h4.797
			c0.828,0,1.323-0.658,1.323-1.646S614.748,155.468,613.92,155.468z M604.328,155.468h-4.797c-0.496,0-1.158,0.823-1.158,1.812
			s0.662,1.646,1.158,1.646h4.797c0.827,0,1.322-0.658,1.322-1.646S605.155,155.468,604.328,155.468z M594.735,155.468h-4.797
			c-0.496,0-1.158,0.823-1.158,1.812s0.662,1.646,1.158,1.646h4.797c0.826,0,1.322-0.658,1.322-1.646
			S595.562,155.468,594.735,155.468z M633.767,155.468h-4.797c-0.495,0-1.157,0.823-1.157,1.812s0.662,1.646,1.157,1.646h4.797
			c0.826,0,1.323-0.658,1.323-1.646S634.593,155.468,633.767,155.468z M624.174,155.468h-4.796c-0.497,0-1.158,0.823-1.158,1.812
			s0.661,1.646,1.158,1.646h4.796c0.827,0,1.323-0.658,1.323-1.646S625.001,155.468,624.174,155.468z M643.359,155.468h-4.797
			c-0.495,0-1.158,0.823-1.158,1.812s0.663,1.646,1.158,1.646h4.797c0.826,0,1.323-0.658,1.323-1.646
			S644.186,155.468,643.359,155.468z M653.612,155.468h-4.796c-0.496,0-1.157,0.823-1.157,1.812s0.661,1.646,1.157,1.646h4.796
			c0.827,0,1.324-0.658,1.324-1.646S654.439,155.468,653.612,155.468z M672.799,155.468h-4.797c-0.496,0-1.158,0.823-1.158,1.812
			s0.662,1.646,1.158,1.646h4.797c0.826,0,1.322-0.658,1.322-1.646S673.625,155.468,672.799,155.468z M663.206,155.468h-4.797
			c-0.496,0-1.158,0.823-1.158,1.812s0.662,1.646,1.158,1.646h4.797c0.826,0,1.323-0.658,1.323-1.646
			S664.032,155.468,663.206,155.468z M683.052,155.468h-4.796c-0.496,0-1.158,0.823-1.158,1.812s0.662,1.646,1.158,1.646h4.796
			c0.827,0,1.324-0.658,1.324-1.646S683.879,155.468,683.052,155.468z M702.238,155.468h-4.797c-0.497,0-1.158,0.823-1.158,1.812
			s0.661,1.646,1.158,1.646h4.797c0.826,0,1.322-0.658,1.322-1.646S703.064,155.468,702.238,155.468z M692.645,155.468h-4.796
			c-0.497,0-1.158,0.823-1.158,1.812s0.661,1.646,1.158,1.646h4.796c0.827,0,1.323-0.658,1.323-1.646
			S693.472,155.468,692.645,155.468z M726.881,158.926h4.795c0.828,0,1.324-0.658,1.324-1.646s-0.496-1.812-1.324-1.812h-4.795
			c-0.497,0-1.158,0.823-1.158,1.812S726.384,158.926,726.881,158.926z M712.491,155.468h-4.796c-0.497,0-1.158,0.823-1.158,1.812
			s0.661,1.646,1.158,1.646h4.796c0.827,0,1.323-0.658,1.323-1.646S713.318,155.468,712.491,155.468z M722.084,155.468h-4.796
			c-0.497,0-1.158,0.823-1.158,1.812s0.661,1.646,1.158,1.646h4.796c0.827,0,1.323-0.658,1.323-1.646
			S722.911,155.468,722.084,155.468z M15.547,164.542H10.75c-0.497,0-1.158,0.823-1.158,1.812S10.254,168,10.75,168h4.796
			c0.827,0,1.323-0.658,1.323-1.646S16.374,164.542,15.547,164.542z M5.954,164.542H1.158c-0.497,0-1.158,0.823-1.158,1.812
			S0.662,168,1.158,168h4.796c0.827,0,1.323-0.658,1.323-1.646S6.781,164.542,5.954,164.542z M25.14,164.542h-4.796
			c-0.496,0-1.158,0.823-1.158,1.812S19.847,168,20.343,168h4.796c0.827,0,1.323-0.658,1.323-1.646S25.966,164.542,25.14,164.542z
			 M54.579,164.542h-4.796c-0.497,0-1.158,0.823-1.158,1.812S49.286,168,49.782,168h4.796c0.827,0,1.323-0.658,1.323-1.646
			S55.405,164.542,54.579,164.542z M44.986,164.542h-4.796c-0.496,0-1.158,0.823-1.158,1.812S39.693,168,40.189,168h4.796
			c0.827,0,1.323-0.658,1.323-1.646S45.813,164.542,44.986,164.542z M35.393,164.542h-4.796c-0.496,0-1.157,0.823-1.157,1.812
			S30.101,168,30.597,168h4.796c0.827,0,1.323-0.658,1.323-1.646S36.22,164.542,35.393,164.542z M64.832,164.542h-4.796
			c-0.496,0-1.158,0.823-1.158,1.812S59.54,168,60.036,168h4.796c0.827,0,1.323-0.658,1.323-1.646S65.659,164.542,64.832,164.542z
			 M74.425,164.542h-4.796c-0.496,0-1.157,0.823-1.157,1.812S69.132,168,69.628,168h4.796c0.827,0,1.323-0.658,1.323-1.646
			S75.251,164.542,74.425,164.542z M84.018,164.542h-4.796c-0.496,0-1.158,0.823-1.158,1.812S78.725,168,79.221,168h4.796
			c0.827,0,1.323-0.658,1.323-1.646S84.844,164.542,84.018,164.542z M113.457,164.542h-4.796c-0.496,0-1.158,0.823-1.158,1.812
			S108.164,168,108.66,168h4.796c0.827,0,1.323-0.658,1.323-1.646S114.283,164.542,113.457,164.542z M94.271,164.542h-4.796
			c-0.496,0-1.157,0.823-1.157,1.812S88.979,168,89.475,168h4.796c0.827,0,1.323-0.658,1.323-1.646S95.098,164.542,94.271,164.542z
			 M103.864,164.542h-4.797c-0.496,0-1.158,0.823-1.158,1.812S98.571,168,99.067,168h4.797c0.827,0,1.323-0.658,1.323-1.646
			S104.691,164.542,103.864,164.542z M123.71,164.542h-4.796c-0.496,0-1.158,0.823-1.158,1.812s0.662,1.646,1.158,1.646h4.796
			c0.827,0,1.324-0.658,1.324-1.646S124.537,164.542,123.71,164.542z M133.303,164.542h-4.796c-0.496,0-1.157,0.823-1.157,1.812
			S128.01,168,128.506,168h4.796c0.827,0,1.323-0.658,1.323-1.646S134.13,164.542,133.303,164.542z M142.896,164.542h-4.796
			c-0.496,0-1.158,0.823-1.158,1.812s0.662,1.646,1.158,1.646h4.796c0.827,0,1.323-0.658,1.323-1.646
			S143.723,164.542,142.896,164.542z M162.742,164.542h-4.796c-0.497,0-1.158,0.823-1.158,1.812s0.662,1.646,1.158,1.646h4.796
			c0.827,0,1.323-0.658,1.323-1.646S163.569,164.542,162.742,164.542z M172.334,164.542h-4.796c-0.496,0-1.158,0.823-1.158,1.812
			s0.662,1.646,1.158,1.646h4.796c0.827,0,1.323-0.658,1.323-1.646S173.161,164.542,172.334,164.542z M153.149,164.542h-4.796
			c-0.497,0-1.158,0.823-1.158,1.812s0.661,1.646,1.158,1.646h4.796c0.827,0,1.323-0.658,1.323-1.646
			S153.976,164.542,153.149,164.542z M182.588,164.542h-4.796c-0.496,0-1.158,0.823-1.158,1.812s0.662,1.646,1.158,1.646h4.796
			c0.828,0,1.324-0.658,1.324-1.646S183.416,164.542,182.588,164.542z M192.181,164.542h-4.796c-0.497,0-1.158,0.823-1.158,1.812
			s0.661,1.646,1.158,1.646h4.796c0.827,0,1.323-0.658,1.323-1.646S193.008,164.542,192.181,164.542z M201.774,164.542h-4.796
			c-0.497,0-1.158,0.823-1.158,1.812s0.662,1.646,1.158,1.646h4.796c0.827,0,1.323-0.658,1.323-1.646
			S202.601,164.542,201.774,164.542z M212.027,164.542h-4.796c-0.496,0-1.157,0.823-1.157,1.812s0.661,1.646,1.157,1.646h4.796
			c0.827,0,1.323-0.658,1.323-1.646S212.854,164.542,212.027,164.542z M221.62,164.542h-4.796c-0.496,0-1.158,0.823-1.158,1.812
			s0.662,1.646,1.158,1.646h4.796c0.827,0,1.323-0.658,1.323-1.646S222.447,164.542,221.62,164.542z M231.212,164.542h-4.796
			c-0.496,0-1.157,0.823-1.157,1.812S225.92,168,226.416,168h4.796c0.827,0,1.323-0.658,1.323-1.646S232.04,164.542,231.212,164.542
			z M260.652,164.542h-4.796c-0.496,0-1.158,0.823-1.158,1.812s0.662,1.646,1.158,1.646h4.796c0.827,0,1.323-0.658,1.323-1.646
			S261.479,164.542,260.652,164.542z M251.059,164.542h-4.796c-0.497,0-1.158,0.823-1.158,1.812s0.661,1.646,1.158,1.646h4.796
			c0.827,0,1.323-0.658,1.323-1.646S251.886,164.542,251.059,164.542z M241.466,164.542h-4.796c-0.496,0-1.158,0.823-1.158,1.812
			S236.174,168,236.67,168h4.796c0.827,0,1.323-0.658,1.323-1.646S242.293,164.542,241.466,164.542z M290.091,164.542h-4.797
			c-0.496,0-1.157,0.823-1.157,1.812s0.661,1.646,1.157,1.646h4.797c0.827,0,1.323-0.658,1.323-1.646
			S290.917,164.542,290.091,164.542z M280.498,164.542h-4.796c-0.496,0-1.158,0.823-1.158,1.812s0.662,1.646,1.158,1.646h4.796
			c0.827,0,1.323-0.658,1.323-1.646S281.325,164.542,280.498,164.542z M270.905,164.542h-4.796c-0.496,0-1.157,0.823-1.157,1.812
			s0.661,1.646,1.157,1.646h4.796c0.827,0,1.323-0.658,1.323-1.646S271.732,164.542,270.905,164.542z M300.344,164.542h-4.796
			c-0.497,0-1.158,0.823-1.158,1.812s0.662,1.646,1.158,1.646h4.796c0.827,0,1.323-0.658,1.323-1.646
			S301.171,164.542,300.344,164.542z M309.937,164.542h-4.796c-0.496,0-1.158,0.823-1.158,1.812s0.662,1.646,1.158,1.646h4.796
			c0.827,0,1.323-0.658,1.323-1.646S310.764,164.542,309.937,164.542z M319.53,164.542h-4.796c-0.496,0-1.158,0.823-1.158,1.812
			s0.662,1.646,1.158,1.646h4.796c0.827,0,1.323-0.658,1.323-1.646S320.356,164.542,319.53,164.542z M348.969,164.542h-4.796
			c-0.497,0-1.158,0.823-1.158,1.812s0.661,1.646,1.158,1.646h4.796c0.827,0,1.323-0.658,1.323-1.646
			S349.795,164.542,348.969,164.542z M329.783,164.542h-4.796c-0.496,0-1.157,0.823-1.157,1.812s0.661,1.646,1.157,1.646h4.796
			c0.827,0,1.323-0.658,1.323-1.646S330.61,164.542,329.783,164.542z M339.376,164.542h-4.797c-0.496,0-1.158,0.823-1.158,1.812
			S334.083,168,334.58,168h4.797c0.827,0,1.323-0.658,1.323-1.646S340.203,164.542,339.376,164.542z M368.815,164.542h-4.797
			c-0.496,0-1.157,0.823-1.157,1.812s0.661,1.646,1.157,1.646h4.797c0.827,0,1.322-0.658,1.322-1.646
			S369.643,164.542,368.815,164.542z M378.407,164.542h-4.796c-0.496,0-1.157,0.823-1.157,1.812s0.661,1.646,1.157,1.646h4.796
			c0.827,0,1.323-0.658,1.323-1.646S379.234,164.542,378.407,164.542z M359.222,164.542h-4.796c-0.496,0-1.158,0.823-1.158,1.812
			S353.93,168,354.426,168h4.796c0.827,0,1.324-0.658,1.324-1.646S360.049,164.542,359.222,164.542z M407.847,164.542h-4.797
			c-0.495,0-1.157,0.823-1.157,1.812S402.555,168,403.05,168h4.797c0.827,0,1.323-0.658,1.323-1.646
			S408.674,164.542,407.847,164.542z M398.254,164.542h-4.797c-0.495,0-1.156,0.823-1.156,1.812s0.661,1.646,1.156,1.646h4.797
			c0.827,0,1.323-0.658,1.323-1.646S399.081,164.542,398.254,164.542z M388.661,164.542h-4.796c-0.496,0-1.157,0.823-1.157,1.812
			s0.661,1.646,1.157,1.646h4.796c0.827,0,1.323-0.658,1.323-1.646S389.488,164.542,388.661,164.542z M418.101,164.542h-4.797
			c-0.496,0-1.157,0.823-1.157,1.812s0.661,1.646,1.157,1.646h4.797c0.826,0,1.323-0.658,1.323-1.646
			S418.927,164.542,418.101,164.542z M437.286,164.542h-4.797c-0.496,0-1.158,0.823-1.158,1.812s0.662,1.646,1.158,1.646h4.797
			c0.826,0,1.322-0.658,1.322-1.646S438.112,164.542,437.286,164.542z M427.693,164.542h-4.797c-0.495,0-1.158,0.823-1.158,1.812
			s0.663,1.646,1.158,1.646h4.797c0.826,0,1.323-0.658,1.323-1.646S428.52,164.542,427.693,164.542z M457.133,164.542h-4.797
			c-0.497,0-1.158,0.823-1.158,1.812s0.661,1.646,1.158,1.646h4.797c0.826,0,1.322-0.658,1.322-1.646
			S457.959,164.542,457.133,164.542z M466.726,164.542h-4.797c-0.497,0-1.158,0.823-1.158,1.812s0.661,1.646,1.158,1.646h4.797
			c0.826,0,1.322-0.658,1.322-1.646S467.552,164.542,466.726,164.542z M447.539,164.542h-4.796c-0.496,0-1.158,0.823-1.158,1.812
			s0.662,1.646,1.158,1.646h4.796c0.827,0,1.324-0.658,1.324-1.646S448.366,164.542,447.539,164.542z M476.979,164.542h-4.796
			c-0.497,0-1.158,0.823-1.158,1.812s0.661,1.646,1.158,1.646h4.796c0.827,0,1.323-0.658,1.323-1.646
			S477.806,164.542,476.979,164.542z M496.163,164.542h-4.796c-0.496,0-1.157,0.823-1.157,1.812s0.661,1.646,1.157,1.646h4.796
			c0.827,0,1.324-0.658,1.324-1.646S496.99,164.542,496.163,164.542z M486.571,164.542h-4.796c-0.497,0-1.158,0.823-1.158,1.812
			s0.661,1.646,1.158,1.646h4.796c0.827,0,1.323-0.658,1.323-1.646S487.398,164.542,486.571,164.542z M516.01,164.542h-4.796
			c-0.496,0-1.157,0.823-1.157,1.812s0.661,1.646,1.157,1.646h4.796c0.827,0,1.323-0.658,1.323-1.646
			S516.837,164.542,516.01,164.542z M525.603,164.542h-4.796c-0.496,0-1.158,0.823-1.158,1.812s0.662,1.646,1.158,1.646h4.796
			c0.827,0,1.324-0.658,1.324-1.646S526.43,164.542,525.603,164.542z M506.418,164.542h-4.796c-0.497,0-1.158,0.823-1.158,1.812
			s0.661,1.646,1.158,1.646h4.796c0.827,0,1.322-0.658,1.322-1.646S507.245,164.542,506.418,164.542z M545.449,164.542h-4.796
			c-0.496,0-1.158,0.823-1.158,1.812s0.662,1.646,1.158,1.646h4.796c0.827,0,1.323-0.658,1.323-1.646
			S546.276,164.542,545.449,164.542z M555.042,164.542h-4.796c-0.496,0-1.158,0.823-1.158,1.812S549.75,168,550.246,168h4.796
			c0.827,0,1.323-0.658,1.323-1.646S555.869,164.542,555.042,164.542z M535.856,164.542h-4.797c-0.495,0-1.156,0.823-1.156,1.812
			S530.564,168,531.06,168h4.797c0.827,0,1.323-0.658,1.323-1.646S536.684,164.542,535.856,164.542z M574.889,164.542h-4.797
			c-0.496,0-1.157,0.823-1.157,1.812s0.661,1.646,1.157,1.646h4.797c0.827,0,1.322-0.658,1.322-1.646
			S575.716,164.542,574.889,164.542z M584.481,164.542h-4.796c-0.497,0-1.158,0.823-1.158,1.812s0.661,1.646,1.158,1.646h4.796
			c0.827,0,1.322-0.658,1.322-1.646S585.309,164.542,584.481,164.542z M565.296,164.542h-4.797c-0.495,0-1.157,0.823-1.157,1.812
			s0.662,1.646,1.157,1.646h4.797c0.826,0,1.323-0.658,1.323-1.646S566.122,164.542,565.296,164.542z M604.328,164.542h-4.797
			c-0.496,0-1.158,0.823-1.158,1.812s0.662,1.646,1.158,1.646h4.797c0.827,0,1.322-0.658,1.322-1.646
			S605.155,164.542,604.328,164.542z M594.735,164.542h-4.797c-0.496,0-1.158,0.823-1.158,1.812s0.662,1.646,1.158,1.646h4.797
			c0.826,0,1.322-0.658,1.322-1.646S595.562,164.542,594.735,164.542z M613.92,164.542h-4.797c-0.495,0-1.156,0.823-1.156,1.812
			s0.661,1.646,1.156,1.646h4.797c0.828,0,1.323-0.658,1.323-1.646S614.748,164.542,613.92,164.542z M624.174,164.542h-4.796
			c-0.497,0-1.158,0.823-1.158,1.812s0.661,1.646,1.158,1.646h4.796c0.827,0,1.323-0.658,1.323-1.646
			S625.001,164.542,624.174,164.542z M643.359,164.542h-4.797c-0.495,0-1.158,0.823-1.158,1.812s0.663,1.646,1.158,1.646h4.797
			c0.826,0,1.323-0.658,1.323-1.646S644.186,164.542,643.359,164.542z M633.767,164.542h-4.797c-0.495,0-1.157,0.823-1.157,1.812
			S628.475,168,628.97,168h4.797c0.826,0,1.323-0.658,1.323-1.646S634.593,164.542,633.767,164.542z M653.612,164.542h-4.796
			c-0.496,0-1.157,0.823-1.157,1.812S648.32,168,648.816,168h4.796c0.827,0,1.324-0.658,1.324-1.646
			S654.439,164.542,653.612,164.542z M672.799,164.542h-4.797c-0.496,0-1.158,0.823-1.158,1.812s0.662,1.646,1.158,1.646h4.797
			c0.826,0,1.322-0.658,1.322-1.646S673.625,164.542,672.799,164.542z M663.206,164.542h-4.797c-0.496,0-1.158,0.823-1.158,1.812
			s0.662,1.646,1.158,1.646h4.797c0.826,0,1.323-0.658,1.323-1.646S664.032,164.542,663.206,164.542z M692.645,164.542h-4.796
			c-0.497,0-1.158,0.823-1.158,1.812s0.661,1.646,1.158,1.646h4.796c0.827,0,1.323-0.658,1.323-1.646
			S693.472,164.542,692.645,164.542z M683.052,164.542h-4.796c-0.496,0-1.158,0.823-1.158,1.812S677.76,168,678.256,168h4.796
			c0.827,0,1.324-0.658,1.324-1.646S683.879,164.542,683.052,164.542z M702.238,164.542h-4.797c-0.497,0-1.158,0.823-1.158,1.812
			s0.661,1.646,1.158,1.646h4.797c0.826,0,1.322-0.658,1.322-1.646S703.064,164.542,702.238,164.542z M712.491,164.542h-4.796
			c-0.497,0-1.158,0.823-1.158,1.812s0.661,1.646,1.158,1.646h4.796c0.827,0,1.323-0.658,1.323-1.646
			S713.318,164.542,712.491,164.542z M722.084,164.542h-4.796c-0.497,0-1.158,0.823-1.158,1.812s0.661,1.646,1.158,1.646h4.796
			c0.827,0,1.323-0.658,1.323-1.646S722.911,164.542,722.084,164.542z M731.676,164.542h-4.795c-0.497,0-1.158,0.823-1.158,1.812
			s0.661,1.646,1.158,1.646h4.795c0.828,0,1.324-0.658,1.324-1.646S732.504,164.542,731.676,164.542z"/>
	</g>
</g>
</svg>
