<?xml version="1.0" encoding="utf-8"?>
<!-- Generator: Adobe Illustrator 15.1.0, SVG Export Plug-In  -->
<!DOCTYPE svg PUBLIC "-//W3C//DTD SVG 1.1//EN" "http://www.w3.org/Graphics/SVG/1.1/DTD/svg11.dtd" [
	<!ENTITY ns_flows "http://ns.adobe.com/Flows/1.0/">
]>
<svg version="1.1"
	 xmlns="http://www.w3.org/2000/svg" xmlns:xlink="http://www.w3.org/1999/xlink" xmlns:a="http://ns.adobe.com/AdobeSVGViewerExtensions/3.0/"
	 x="0px" y="0px" width="697px" height="117px" viewBox="0 0 697 117" enable-background="new 0 0 697 117" xml:space="preserve">
<defs>
</defs>
<g>
	<g>
		<path fill="#FFFFFF" d="M68.529,100.286H16.547V8.19c0-2.228-0.81-4.149-2.423-5.766C12.507,0.81,10.585,0,8.357,0
			c-2.231,0-4.179,0.81-5.85,2.424C0.836,4.041,0,5.962,0,8.19v100.621c0,2.229,0.836,4.152,2.507,5.767
			C4.179,116.194,6.126,117,8.357,117h60.172c2.227,0,4.178-0.806,5.85-2.423c1.671-1.614,2.507-3.537,2.507-5.767
			c0-2.34-0.835-4.346-2.507-6.019C72.708,101.122,70.756,100.286,68.529,100.286z M157.531,50.644
			c-3.51-3.564-7.634-6.377-12.369-8.44c-4.737-2.061-9.778-3.092-15.126-3.092s-10.392,1.031-15.126,3.092
			c-4.737,2.063-8.858,4.876-12.368,8.44c-3.51,3.568-6.297,7.718-8.358,12.453c-2.063,4.737-3.092,9.777-3.092,15.128
			c0,5.348,1.029,10.39,3.092,15.125c2.061,4.738,4.848,8.859,8.358,12.369c3.51,3.51,7.631,6.268,12.368,8.273
			c4.735,2.006,9.778,3.008,15.126,3.008s10.389-1.002,15.126-3.008c4.735-2.006,8.859-4.764,12.369-8.273
			c3.51-3.51,6.294-7.631,8.357-12.369c2.061-4.735,3.092-9.777,3.092-15.125c0-5.351-1.032-10.391-3.092-15.128
			C163.825,58.362,161.042,54.212,157.531,50.644z M150.427,86.748c-1.115,2.674-2.674,5.014-4.68,7.02
			c-2.006,2.005-4.346,3.567-7.02,4.681c-2.674,1.114-5.574,1.671-8.692,1.671c-3.008,0-5.85-0.557-8.524-1.671
			c-2.674-1.113-5.015-2.676-7.021-4.681c-2.005-2.006-3.593-4.346-4.763-7.02c-1.17-2.675-1.755-5.516-1.755-8.523
			c0-3.119,0.585-6.018,1.755-8.692s2.758-5.015,4.763-7.021c2.006-2.006,4.346-3.594,7.021-4.764s5.516-1.755,8.524-1.755
			c3.118,0,6.018,0.585,8.692,1.755c2.674,1.17,5.014,2.758,7.02,4.764s3.565,4.346,4.68,7.021c1.113,2.675,1.671,5.573,1.671,8.692
			C152.099,81.232,151.54,84.073,150.427,86.748z M252.552,40.115c-1.228-0.669-2.452-1.002-3.677-1.002
			c-1.45,0-2.87,0.501-4.262,1.504c-1.395,1.003-2.481,2.173-3.259,3.51L220.126,88.92l-21.562-44.794
			c-0.669-1.559-1.7-2.784-3.092-3.677c-1.395-0.891-2.87-1.336-4.429-1.336c-1.338,0-2.564,0.333-3.677,1.002
			c-1.562,0.668-2.732,1.7-3.51,3.092c-0.781,1.395-1.171,2.871-1.171,4.429c0,0.781,0.084,1.45,0.251,2.006
			c0.167,0.559,0.361,1.115,0.585,1.672l28.916,61.007c0.778,1.228,1.865,2.314,3.259,3.26c1.393,0.948,2.868,1.42,4.43,1.42
			c1.559,0,3.035-0.417,4.429-1.253c1.392-0.835,2.366-1.978,2.925-3.427l28.916-61.007c0.223-0.557,0.418-1.113,0.585-1.672
			c0.167-0.556,0.251-1.225,0.251-2.006c0-1.559-0.391-3.034-1.17-4.429C255.281,41.815,254.111,40.783,252.552,40.115z
			 M329.102,50.143c-6.686-7.354-14.766-11.031-24.236-11.031c-4.68,0-9.055,1.031-13.121,3.092
			c-4.069,2.063-7.633,4.847-10.697,8.357c-3.066,3.51-5.49,7.634-7.271,12.369c-1.784,4.738-2.674,9.778-2.674,15.127
			c0,10.587,2.784,19.445,8.357,26.576c2.896,3.676,6.519,6.575,10.865,8.69c4.345,2.118,9.081,3.288,14.208,3.51
			c0.443,0.113,1.391,0.167,2.841,0.167c2.34,0,5.432-0.359,9.276-1.086c3.845-0.724,7.715-2.366,11.617-4.931
			c2.674-2.006,4.011-4.455,4.011-7.354c0-1.893-0.279-3.063-0.835-3.51c-0.893-1.559-2.035-2.729-3.426-3.51
			c-1.395-0.778-2.816-1.171-4.262-1.171c-1.45,0-3.066,0.447-4.848,1.337c-2.452,1.673-4.821,2.648-7.104,2.926
			c-2.285,0.279-4.152,0.418-5.599,0.418H305.2c-2.453-0.109-4.596-0.641-6.435-1.587c-1.838-0.946-3.426-2.146-4.764-3.595
			c-1.337-1.446-2.481-3.063-3.426-4.847c-0.948-1.781-1.7-3.565-2.256-5.349h41.953c2.228,0,4.179-0.836,5.851-2.507
			c1.671-1.672,2.507-3.678,2.507-6.017c0-5.015-0.81-9.751-2.424-14.208C334.589,57.555,332.22,53.598,329.102,50.143z
			 M289.656,67.86c1.894-3.565,4.205-6.461,6.937-8.691c2.729-2.228,5.487-3.343,8.274-3.343c3.23,0,6.21,1.115,8.942,3.343
			c2.729,2.23,5.041,5.126,6.937,8.691H289.656z M427.883,100.286h-51.983V8.19c0-2.228-0.808-4.149-2.424-5.766
			C371.86,0.81,369.938,0,367.711,0c-2.231,0-4.18,0.81-5.852,2.424c-1.671,1.617-2.506,3.539-2.506,5.766v100.621
			c0,2.229,0.835,4.152,2.506,5.767c1.672,1.617,3.62,2.423,5.852,2.423h60.172c2.228,0,4.178-0.806,5.85-2.423
			c1.671-1.614,2.508-3.537,2.508-5.767c0-2.34-0.837-4.346-2.508-6.019C432.061,101.122,430.11,100.286,427.883,100.286z
			 M466.157,39.112c-2.231,0-4.18,0.835-5.852,2.507c-1.671,1.671-2.508,3.677-2.508,6.017v61.009c0,2.229,0.837,4.178,2.508,5.849
			c1.672,1.672,3.62,2.507,5.852,2.507c2.227,0,4.177-0.835,5.849-2.507c1.672-1.671,2.508-3.62,2.508-5.849V47.636
			c0-2.34-0.836-4.346-2.508-6.017C470.334,39.948,468.384,39.112,466.157,39.112z M566.609,40.115
			c-1.228-0.669-2.452-1.002-3.679-1.002c-1.447,0-2.869,0.501-4.261,1.504c-1.395,1.003-2.479,2.173-3.26,3.51L534.183,88.92
			l-21.561-44.794c-0.669-1.559-1.701-2.784-3.092-3.677c-1.396-0.891-2.87-1.336-4.429-1.336c-1.34,0-2.566,0.333-3.679,1.002
			c-1.562,0.668-2.731,1.7-3.51,3.092c-0.78,1.395-1.17,2.871-1.17,4.429c0,0.781,0.083,1.45,0.251,2.006
			c0.168,0.559,0.36,1.115,0.584,1.672l28.916,61.007c0.779,1.228,1.864,2.314,3.26,3.26c1.392,0.948,2.868,1.42,4.429,1.42
			c1.562,0,3.036-0.417,4.431-1.253c1.391-0.835,2.365-1.978,2.925-3.427l28.916-61.007c0.222-0.557,0.416-1.113,0.584-1.672
			c0.168-0.556,0.251-1.225,0.251-2.006c0-1.559-0.392-3.034-1.17-4.429C569.339,41.815,568.169,40.783,566.609,40.115z
			 M643.16,50.143c-6.688-7.354-14.768-11.031-24.236-11.031c-4.68,0-9.055,1.031-13.121,3.092
			c-4.069,2.063-7.633,4.847-10.696,8.357c-3.066,3.51-5.49,7.634-7.271,12.369c-1.784,4.738-2.675,9.778-2.675,15.127
			c0,10.587,2.784,19.445,8.358,26.576c2.896,3.676,6.518,6.575,10.864,8.69c4.346,2.118,9.079,3.288,14.206,3.51
			c0.444,0.113,1.393,0.167,2.842,0.167c2.341,0,5.433-0.359,9.277-1.086c3.844-0.724,7.713-2.366,11.615-4.931
			c2.676-2.006,4.012-4.455,4.012-7.354c0-1.893-0.28-3.063-0.835-3.51c-0.895-1.559-2.034-2.729-3.428-3.51
			c-1.395-0.778-2.814-1.171-4.262-1.171c-1.449,0-3.065,0.447-4.847,1.337c-2.453,1.673-4.82,2.648-7.104,2.926
			c-2.285,0.279-4.151,0.418-5.6,0.418h-1c-2.454-0.109-4.599-0.641-6.437-1.587c-1.839-0.946-3.428-2.146-4.764-3.595
			c-1.336-1.446-2.482-3.063-3.427-4.847c-0.947-1.781-1.699-3.565-2.257-5.349h41.952c2.229,0,4.18-0.836,5.852-2.507
			c1.672-1.672,2.508-3.678,2.508-6.017c0-5.015-0.811-9.751-2.424-14.208C648.646,57.555,646.277,53.598,643.16,50.143z
			 M603.713,67.86c1.894-3.565,4.206-6.461,6.938-8.691c2.727-2.228,5.486-3.343,8.272-3.343c3.23,0,6.21,1.115,8.942,3.343
			c2.729,2.23,5.039,5.126,6.937,8.691H603.713z M685.412,96.943c-2.677,0-4.983,1.003-6.921,3.009
			c-1.938,2.006-2.906,4.412-2.906,7.221c0,2.676,0.968,4.982,2.906,6.92c1.938,1.939,4.244,2.907,6.921,2.907
			c2.809,0,5.214-0.968,7.222-2.907c2.004-1.938,3.008-4.244,3.008-6.92c0-2.809-1.004-5.215-3.008-7.221
			C690.626,97.946,688.221,96.943,685.412,96.943z M692.634,5.137c-2.008-1.937-4.413-2.908-7.222-2.908
			c-2.677,0-4.983,0.971-6.921,2.908c-1.938,1.94-2.906,4.247-2.906,6.92V76.44c0,2.677,0.968,5.014,2.906,7.021
			c1.938,2.005,4.244,3.008,6.921,3.008c2.809,0,5.214-1.003,7.222-3.008c2.004-2.007,3.008-4.344,3.008-7.021V12.057
			C695.642,9.383,694.638,7.077,692.634,5.137z"/>
	</g>
</g>
</svg>
