<?xml version="1.0" encoding="utf-8"?>
<!-- Generator: Adobe Illustrator 15.1.0, SVG Export Plug-In  -->
<!DOCTYPE svg PUBLIC "-//W3C//DTD SVG 1.1//EN" "http://www.w3.org/Graphics/SVG/1.1/DTD/svg11.dtd" [
	<!ENTITY ns_flows "http://ns.adobe.com/Flows/1.0/">
]>
<svg version="1.1"
	 xmlns="http://www.w3.org/2000/svg" xmlns:xlink="http://www.w3.org/1999/xlink" xmlns:a="http://ns.adobe.com/AdobeSVGViewerExtensions/3.0/"
	 x="0px" y="0px" width="805px" height="112px" viewBox="0 0 805 112" overflow="visible" enable-background="new 0 0 805 112"
	 xml:space="preserve">
<defs>
</defs>
<g>
	<g>
		<path fill="#FFFFFF" d="M26.218,20.9h-8.153V0.16H0v104.341h7.354v7.339h72.739V91.577H26.218V20.9z M18.065,22.814h6.234v68.763
			h-6.234V22.814z M24.299,93.351v9.077H9.272V22.814h6.874v70.536H24.299z M7.354,102.428H1.918V1.915h14.228v18.826H7.354V102.428
			z M78.334,93.492v16.434H9.272v-5.425h16.946V93.492H78.334z M191.04,56c0,8.511-2.133,16.434-6.395,23.772
			c-3.412,5.743-7.781,10.558-13.109,14.438c-5.331,3.884-11.245,6.517-17.745,7.896c-2.772,0.534-5.863,0.906-9.272,1.117V84.718
			c3.837-0.104,7.434-0.931,10.791-2.473c3.357-1.54,6.287-3.59,8.792-6.143c2.503-2.553,4.476-5.556,5.915-9.015
			c1.439-3.456,2.158-7.099,2.158-10.928c0-3.934-0.747-7.63-2.238-11.088c-1.493-3.455-3.544-6.462-6.154-9.014
			c-2.613-2.552-5.651-4.572-9.113-6.062c-3.464-1.489-7.168-2.234-11.111-2.234H142.6v55.042c-3.517-0.104-6.849-0.877-9.992-2.312
			c-3.145-1.437-5.89-3.351-8.233-5.744c-2.346-2.393-4.184-5.186-5.515-8.375c-1.334-3.191-1.999-6.595-1.999-10.211
			c0-5.21,1.439-9.997,4.316-14.359l0.479-0.797l-4.316-2.872c3.09-4.148,6.899-7.392,11.431-9.732
			c4.528-2.339,9.404-3.51,14.628-3.51c2.877,0,5.7,0.347,8.473,1.038c2.77,0.693,5.38,1.782,7.833,3.271l0.799,0.479l7.354-10.211
			c2.238,1.491,4.476,3.35,6.714,5.584c2.343,2.341,4.422,5,6.235,7.977l0.479,0.639l4.956-2.394l-0.479-0.957
			c-1.918-3.191-4.264-6.167-7.034-8.935l-0.32-0.319c-2.133-2.126-4.584-4.148-7.354-6.063l2.238-3.032
			c0.744-1.062,1.172-1.675,1.279-1.834c0.105-0.16,0.212-0.292,0.32-0.399c-0.215-0.212-0.694-0.531-1.439-0.957
			c-0.747-0.424-1.573-0.903-2.478-1.436c-0.906-0.531-1.838-1.037-2.797-1.516c-0.959-0.478-1.813-0.877-2.558-1.196
			c-7.142-2.977-14.443-4.467-21.902-4.467c-5.011,0-9.807,0.638-14.388,1.914l-0.959,0.16l1.758,6.222
			c-8.101,2.448-15.242,6.648-21.422,12.604c-2.346,2.448-4.372,4.945-6.075,7.499l-5.435-3.51l-0.64,0.798
			C90.696,35.1,87.766,45.151,87.766,56c0,7.657,1.463,14.893,4.396,21.697c2.93,6.81,6.927,12.739,11.99,17.789
			c5.061,5.055,11.003,9.042,17.825,11.966c6.82,2.927,14.068,4.388,21.742,4.388c7.779,0,15.027-1.436,21.742-4.308
			s12.629-6.86,17.745-11.966c5.116-5.104,9.138-11.009,12.07-17.709c2.929-6.7,4.396-13.933,4.396-21.698v-0.797l-8.632-0.16V56z
			 M144.519,29.516c3.517,0.214,6.847,1.037,9.992,2.472c3.142,1.437,5.887,3.351,8.233,5.744c2.343,2.393,4.182,5.16,5.516,8.296
			c1.332,3.139,1.999,6.517,1.999,10.131c0,3.617-0.667,7.02-1.999,10.211c-1.334,3.189-3.173,5.982-5.516,8.375
			c-2.346,2.394-5.091,4.308-8.233,5.744c-3.145,1.436-6.475,2.209-9.992,2.312V29.516z M167.38,16.912
			c-4.796-2.976-10.179-4.946-16.147-5.903l-0.479-0.16c-0.854-0.104-2.026-0.211-3.517-0.318c-1.494-0.105-3.093-0.16-4.796-0.16
			c-0.959,0-1.866,0.027-2.717,0.08c-0.854,0.055-1.654,0.135-2.398,0.24c-0.747,0.106-1.467,0.214-2.158,0.318
			c-0.694,0.107-1.414,0.267-2.159,0.479l-0.479-1.595c1.811-0.531,3.65-0.877,5.516-1.037c1.863-0.159,3.702-0.239,5.515-0.239
			c8.953,0,17.211,2.289,24.78,6.86L167.38,16.912z M176.812,22.177l0.32,0.16c1.171,1.276,2.318,2.58,3.437,3.909
			c1.119,1.332,2.103,2.739,2.958,4.229l-1.599,0.797c-1.494-2.552-3.517-5.105-6.075-7.658c-2.026-2.019-4.317-3.881-6.875-5.584
			l0.959-1.436C172.495,18.295,174.786,20.157,176.812,22.177z M137.245,2.473c2.183-0.265,4.341-0.399,6.475-0.399
			c10.444,0,19.928,2.712,28.456,8.137c-0.214,0.427-0.56,0.958-1.04,1.595c-0.479,0.638-1.039,1.383-1.678,2.234
			c-7.889-4.892-16.521-7.339-25.899-7.339c-3.731,0-7.568,0.426-11.51,1.276L130.77,3.67C132.9,3.139,135.059,2.74,137.245,2.473z
			 M106.79,25.926c0.96-1.221,2.024-2.418,3.198-3.59c5.86-5.848,12.734-9.837,20.623-11.966l1.12,3.509l0.799-0.318
			c1.811-0.532,3.517-0.851,5.116-0.958c0.64-0.211,1.359-0.319,2.159-0.319h2.637c1.598,0,3.143,0.055,4.636,0.159
			c1.492,0.107,2.611,0.215,3.357,0.319h0.479c5.436,0.957,10.551,2.871,15.347,5.744l-6.235,8.775
			c-5.116-2.872-10.659-4.308-16.625-4.308c-5.543,0-10.739,1.251-15.587,3.749c-4.851,2.5-8.873,5.983-12.07,10.45l-11.67-7.499
			C104.924,28.399,105.831,27.15,106.79,25.926z M103.113,31.271l11.67,7.499c-3.517,5.639-5.276,11.647-5.276,18.029
			c0,4.362,0.771,8.511,2.318,12.444c1.543,3.936,3.809,7.446,6.794,10.53l-9.112,8.934c-3.732-3.829-6.689-8.109-8.873-12.843
			c-2.186-4.731-3.544-9.652-4.077-14.758C96.024,56,96.291,50.895,97.357,45.789C98.422,40.684,100.34,35.845,103.113,31.271z
			 M192.958,56.957h4.796c-0.107,7.34-1.599,14.228-4.476,20.66c-2.878,6.438-6.77,12.046-11.67,16.833
			c-4.903,4.786-10.606,8.563-17.106,11.327c-6.501,2.768-13.429,4.148-20.782,4.148c-7.461,0-14.468-1.408-21.022-4.229
			c-6.555-2.816-12.285-6.673-17.186-11.566c-4.903-4.892-8.768-10.61-11.59-17.15c-2.825-6.541-4.237-13.534-4.237-20.98
			c0-10.315,2.663-19.729,7.994-28.24l3.836,2.394c-2.985,4.786-5.036,9.892-6.154,15.317C94.241,50.895,94,56.267,94.64,61.583
			c0.64,5.321,2.13,10.506,4.476,15.557c2.343,5.054,5.541,9.548,9.592,13.48l0.64-0.637l-0.479,0.797l0.639,0.639l11.83-11.488
			l-0.64-0.797c-3.092-2.977-5.41-6.382-6.954-10.211c-1.546-3.829-2.318-7.869-2.318-12.125c0-6.063,1.65-11.752,4.956-17.071
			l2.717,1.755c-2.772,4.574-4.157,9.467-4.157,14.678c0,3.83,0.72,7.472,2.159,10.928c1.438,3.459,3.41,6.462,5.915,9.015
			c2.503,2.553,5.436,4.603,8.793,6.143c3.357,1.542,6.954,2.368,10.791,2.473v20.263h1.119c1.811,0,3.569-0.08,5.275-0.24
			c1.704-0.16,3.41-0.45,5.116-0.877c6.715-1.488,12.869-4.228,18.464-8.217c5.596-3.989,10.151-8.959,13.669-14.917
			c2.131-3.615,3.756-7.419,4.876-11.407C192.239,65.334,192.851,61.213,192.958,56.957z M281.842,8.297l3.357-8.137h-67.943
			l6.555,16.114h-21.422L235.32,98.12c0.852,2.128,1.384,3.35,1.598,3.669c0.213,0.318,0.48,0.479,0.8,0.479h0.639l9.912-24.889
			l1.919,4.467l-12.15,29.994h27.176l20.304-50.575h-5.755l21.422-52.968H281.842z M220.133,2.074h62.188l-2.398,6.223h-5.756
			L252.106,62.86l-18.384-45.949l-0.32-0.638h-7.673L220.133,2.074z M253.226,65.253l22.222-55.042h3.677l-24.14,59.669
			L253.226,65.253z M259.78,86.792l9.592-23.612h7.514l-16.146,40.045l-8.633-21.379l2.878-7.02L259.78,86.792z M237.719,98.757
			c-0.854-2.018-2.158-5.185-3.917-9.492c-1.758-4.308-3.732-9.174-5.915-14.599c-2.186-5.424-4.476-11.113-6.874-17.07
			c-2.398-5.957-4.664-11.593-6.795-16.912c-2.133-5.317-4.024-9.996-5.675-14.04c-1.653-4.041-2.798-6.861-3.437-8.456h19.344
			l22.861,56.638L237.719,98.757z M226.527,18.188h5.596l19.024,47.064l-2.878,7.181L226.527,18.188z M249.389,74.826l2.718-7.02
			l1.918,4.467l-2.877,7.179L249.389,74.826z M282.801,63.18l-18.864,46.746h-23.181l10.392-25.526l9.592,23.932l18.225-45.151
			H282.801z M277.685,61.265h-9.592l-8.313,20.422l-3.836-9.413l25.259-62.062h17.105L277.685,61.265z M396.464,0h-56.912v5.584
			h-27.497v106.096h89.525V5.584h-5.116V0z M341.471,1.915h53.235v3.67h-53.235V1.915z M341.471,7.499h53.235v16.273h-53.235V7.499z
			 M341.471,43.396h32.453v22.176h-32.453V43.396z M395.824,87.111v16.592h-65.544V67.328h9.273v19.783H395.824z M339.552,41.482
			h-9.273V25.687h9.273V41.482z M399.821,7.499v102.268h-85.848V7.499h25.579v16.273h-11.191v19.625h11.191v22.176h-11.191v40.045
			h69.382V85.196h-56.272V67.328h34.371V41.482h-34.371V25.687h54.994V7.499H399.821z M443.463,20.9h-8.153V0.16h-18.065v104.341
			h7.355v7.339h72.738V91.577h-53.875V20.9z M435.31,22.814h6.235v68.763h-6.235V22.814z M441.545,93.351v9.077h-15.027V22.814
			h6.874v70.536H441.545z M424.6,102.428h-5.438V1.915h14.229v18.826H424.6V102.428z M495.58,93.492v16.434h-69.062v-5.425h16.945
			V93.492H495.58z M516.201,10.849h-4.956v7.818h4.956v13.242h-4.956v73.072h4.956V112h21.103v-7.02h5.915V16.912H518.12v-4.148
			h25.099V0.319h-27.018V10.849z M516.201,103.066h-3.037V33.823h3.037V103.066z M516.201,16.912h-3.037v-4.148h3.037V16.912z
			 M518.12,2.234h23.181v8.615H518.12V2.234z M518.12,18.667h23.181v84.399h-3.997V31.909H518.12V18.667z M518.12,33.823h17.266
			v69.243H518.12V33.823z M518.12,104.98h17.266v5.105H518.12V104.98z M635.46,8.297l3.356-8.137h-67.943l6.556,16.114h-21.423
			l32.933,81.846c0.852,2.128,1.385,3.35,1.6,3.669c0.211,0.318,0.479,0.479,0.799,0.479h0.639l9.912-24.889l1.918,4.467
			l-12.149,29.994h27.177l20.304-50.575h-5.755l21.422-52.968H635.46z M573.751,2.074h62.188l-2.397,6.223h-5.756L605.725,62.86
			L587.34,16.912l-0.319-0.638h-7.674L573.751,2.074z M606.844,65.253l22.222-55.042h3.676L608.603,69.88L606.844,65.253z
			 M613.398,86.792l9.592-23.612h7.514l-16.146,40.045l-8.633-21.379l2.878-7.02L613.398,86.792z M591.337,98.757
			c-0.854-2.018-2.158-5.185-3.917-9.492s-3.732-9.174-5.915-14.599c-2.187-5.424-4.477-11.113-6.874-17.07
			c-2.398-5.957-4.664-11.593-6.795-16.912c-2.133-5.317-4.025-9.996-5.675-14.04c-1.654-4.041-2.798-6.861-3.437-8.456h19.343
			l22.861,56.638L591.337,98.757z M580.146,18.188h5.596l19.023,47.064l-2.877,7.181L580.146,18.188z M603.006,74.826l2.719-7.02
			l1.918,4.467l-2.878,7.179L603.006,74.826z M636.419,63.18l-18.864,46.746h-23.181l10.391-25.526l9.593,23.932l18.226-45.151
			H636.419z M631.304,61.265h-9.593l-8.312,20.422l-3.837-9.413l25.259-62.062h17.105L631.304,61.265z M753.279,0h-56.913v5.584
			h-27.495v106.096h89.524V5.584h-5.116V0z M698.284,1.915h53.237v3.67h-53.237V1.915z M698.284,7.499h53.237v16.273h-53.237V7.499z
			 M698.284,43.396h32.454v22.176h-32.454V43.396z M752.641,87.111v16.592h-65.546V67.328h9.271v19.783H752.641z M696.366,41.482
			h-9.271V25.687h9.271V41.482z M756.637,7.499v102.268h-85.848V7.499h25.577v16.273h-11.189v19.625h11.189v22.176h-11.189v40.045
			h69.382V85.196h-56.274V67.328h34.372V41.482h-34.372V25.687h54.995V7.499H756.637z M799.085,80.402v-4.613H805V7.332h-5.915
			v-7.02h-21.103v7.02h-4.956v87.151h4.956v17.51H805V92.568h-25.1V80.402H799.085z M799.085,9.246h3.997v64.789h-3.997V9.246z
			 M779.9,2.227h17.267v5.105H779.9V2.227z M779.9,9.246h17.267v64.789H779.9V9.246z M779.9,75.789h17.267v2.699H779.9V75.789z
			 M777.982,92.568h-3.037V80.402h3.037V92.568z M777.982,78.488h-3.037v-2.699h3.037V78.488z M777.982,74.035h-3.037V9.246h3.037
			V74.035z M803.082,94.482v15.596H779.9V94.482H803.082z"/>
	</g>
</g>
</svg>
