<?xml version="1.0" encoding="utf-8"?>
<!-- Generator: Adobe Illustrator 15.1.0, SVG Export Plug-In  -->
<!DOCTYPE svg PUBLIC "-//W3C//DTD SVG 1.1//EN" "http://www.w3.org/Graphics/SVG/1.1/DTD/svg11.dtd" [
	<!ENTITY ns_flows "http://ns.adobe.com/Flows/1.0/">
]>
<svg version="1.1"
	 xmlns="http://www.w3.org/2000/svg" xmlns:xlink="http://www.w3.org/1999/xlink" xmlns:a="http://ns.adobe.com/AdobeSVGViewerExtensions/3.0/"
	 x="0px" y="0px" width="759px" height="112px" viewBox="0 0 759 112" enable-background="new 0 0 759 112" xml:space="preserve">
<defs>
</defs>
<g>
	<g>
		<path fill="#FFFFFF" d="M26.166,20.9h-8.137V0.16H0v104.342h7.339v7.338h72.593V91.577H26.166V20.9z M18.029,22.814h6.222v68.763
			h-6.222V22.814z M24.25,93.35v9.078H9.253V22.814h6.861V93.35H24.25z M7.339,102.428H1.915V1.915h14.2v18.826H7.339V102.428z
			 M78.176,93.492v16.434H9.253v-5.424h16.913v-11.01H78.176z M190.653,56c0,8.51-2.129,16.433-6.382,23.771
			c-3.405,5.744-7.765,10.558-13.083,14.438c-5.32,3.884-11.223,6.518-17.709,7.898c-2.767,0.533-5.851,0.904-9.253,1.116V84.718
			c3.828-0.104,7.418-0.93,10.769-2.473c3.35-1.54,6.274-3.591,8.774-6.143c2.498-2.554,4.468-5.557,5.903-9.015
			c1.436-3.455,2.154-7.1,2.154-10.928c0-3.934-0.746-7.631-2.233-11.089c-1.491-3.455-3.538-6.461-6.143-9.014
			c-2.608-2.552-5.639-4.571-9.094-6.063c-3.458-1.488-7.155-2.233-11.088-2.233h-0.957v55.042c-3.51-0.104-6.836-0.877-9.972-2.313
			c-3.138-1.437-5.878-3.351-8.216-5.744c-2.341-2.393-4.176-5.186-5.504-8.376c-1.332-3.191-1.995-6.594-1.995-10.21
			c0-5.21,1.436-9.997,4.307-14.359l0.479-0.797l-4.308-2.872c3.083-4.148,6.885-7.391,11.407-9.731
			c4.519-2.339,9.386-3.511,14.599-3.511c2.871,0,5.688,0.347,8.456,1.037c2.765,0.693,5.37,1.783,7.817,3.271l0.797,0.479
			l7.34-10.211c2.233,1.491,4.467,3.35,6.7,5.584c2.338,2.341,4.413,5.001,6.223,7.977l0.479,0.638l4.946-2.393l-0.479-0.957
			c-1.915-3.191-4.255-6.168-7.02-8.935l-0.319-0.319c-2.129-2.126-4.575-4.148-7.34-6.063l2.234-3.031
			c0.743-1.062,1.169-1.675,1.276-1.835c0.104-0.16,0.212-0.292,0.319-0.398c-0.215-0.212-0.693-0.531-1.437-0.958
			c-0.745-0.424-1.57-0.902-2.473-1.436c-0.904-0.531-1.834-1.037-2.792-1.516c-0.958-0.479-1.81-0.878-2.553-1.197
			c-7.127-2.977-14.414-4.467-21.857-4.467c-5.001,0-9.787,0.638-14.359,1.915l-0.957,0.16l1.755,6.222
			c-8.085,2.448-15.211,6.648-21.379,12.604c-2.34,2.448-4.362,4.946-6.063,7.499l-5.424-3.51l-0.638,0.797
			C90.513,35.1,87.588,45.151,87.588,56c0,7.657,1.461,14.893,4.388,21.697c2.924,6.81,6.913,12.738,11.966,17.789
			c5.05,5.054,10.981,9.043,17.789,11.966c6.805,2.928,14.039,4.388,21.698,4.388c7.763,0,14.997-1.435,21.698-4.308
			c6.701-2.872,12.604-6.86,17.709-11.966s9.119-11.008,12.045-17.709c2.924-6.701,4.387-13.934,4.387-21.698v-0.797l-8.615-0.16V56
			z M144.227,29.516c3.509,0.214,6.832,1.037,9.971,2.472c3.136,1.437,5.875,3.351,8.216,5.744c2.338,2.393,4.173,5.16,5.504,8.296
			c1.329,3.139,1.995,6.517,1.995,10.131c0,3.617-0.666,7.019-1.995,10.21c-1.331,3.19-3.166,5.983-5.504,8.376
			c-2.341,2.394-5.08,4.308-8.216,5.744c-3.139,1.436-6.462,2.209-9.971,2.313V29.516z M167.042,16.912
			c-4.787-2.976-10.159-4.946-16.114-5.903l-0.479-0.16c-0.853-0.104-2.022-0.211-3.51-0.318c-1.491-0.105-3.085-0.16-4.786-0.16
			c-0.958,0-1.863,0.027-2.713,0.08c-0.853,0.054-1.65,0.134-2.393,0.239c-0.746,0.107-1.463,0.215-2.154,0.319
			c-0.693,0.107-1.411,0.267-2.154,0.479l-0.478-1.596c1.807-0.531,3.642-0.877,5.503-1.037c1.86-0.159,3.695-0.239,5.504-0.239
			c8.934,0,17.176,2.289,24.729,6.861L167.042,16.912z M176.454,22.177l0.319,0.16c1.169,1.276,2.313,2.58,3.43,3.909
			c1.117,1.331,2.099,2.739,2.951,4.229l-1.595,0.797c-1.491-2.553-3.51-5.105-6.063-7.659c-2.022-2.019-4.308-3.881-6.861-5.583
			l0.958-1.436C172.146,18.295,174.432,20.157,176.454,22.177z M136.967,2.474c2.179-0.265,4.332-0.399,6.461-0.399
			c10.423,0,19.888,2.712,28.398,8.137c-0.214,0.426-0.559,0.957-1.037,1.596c-0.478,0.638-1.037,1.383-1.675,2.233
			c-7.873-4.891-16.488-7.339-25.846-7.339c-3.724,0-7.553,0.426-11.487,1.276l-1.276-4.307
			C132.632,3.139,134.786,2.74,136.967,2.474z M106.574,25.926c0.957-1.221,2.019-2.418,3.191-3.589
			c5.848-5.848,12.708-9.837,20.581-11.966l1.117,3.51l0.798-0.318c1.807-0.532,3.509-0.851,5.104-0.958
			c0.639-0.212,1.356-0.319,2.154-0.319c0.797,0,1.675,0,2.633,0c1.595,0,3.135,0.055,4.626,0.16
			c1.488,0.107,2.605,0.214,3.351,0.319h0.479c5.424,0.958,10.529,2.872,15.316,5.744l-6.223,8.774
			c-5.104-2.872-10.637-4.308-16.592-4.308c-5.532,0-10.717,1.251-15.556,3.75c-4.841,2.5-8.854,5.983-12.045,10.45l-11.647-7.499
			C104.712,28.399,105.617,27.15,106.574,25.926z M102.905,31.271l11.646,7.498c-3.51,5.639-5.265,11.647-5.265,18.028
			c0,4.363,0.77,8.511,2.313,12.445c1.541,3.936,3.802,7.446,6.781,10.529l-9.094,8.934c-3.725-3.828-6.676-8.107-8.855-12.842
			c-2.181-4.732-3.538-9.653-4.068-14.758C95.83,56,96.097,50.895,97.161,45.789C98.223,40.684,100.138,35.845,102.905,31.271z
			 M192.568,56.957h4.786c-0.107,7.339-1.596,14.227-4.467,20.66c-2.872,6.438-6.756,12.046-11.647,16.833
			c-4.893,4.786-10.584,8.563-17.071,11.327c-6.488,2.768-13.401,4.148-20.74,4.148c-7.446,0-14.438-1.408-20.98-4.229
			c-6.542-2.816-12.26-6.673-17.15-11.566c-4.894-4.892-8.751-10.61-11.567-17.151c-2.82-6.541-4.229-13.534-4.229-20.979
			c0-10.315,2.658-19.729,7.977-28.239l3.83,2.394c-2.979,4.786-5.026,9.891-6.143,15.316c-1.116,5.424-1.355,10.796-0.717,16.114
			c0.638,5.319,2.126,10.504,4.467,15.556c2.338,5.053,5.529,9.548,9.572,13.48l0.639-0.638l-0.479,0.797l0.639,0.639l11.806-11.486
			l-0.638-0.798c-3.085-2.977-5.399-6.382-6.94-10.211c-1.543-3.829-2.313-7.87-2.313-12.126c0-6.063,1.647-11.751,4.946-17.07
			l2.712,1.755c-2.767,4.574-4.148,9.467-4.148,14.678c0,3.829,0.718,7.473,2.154,10.928c1.437,3.458,3.402,6.461,5.903,9.015
			c2.498,2.552,5.425,4.603,8.775,6.143c3.35,1.543,6.94,2.368,10.769,2.473v20.262h1.117c1.807,0,3.562-0.079,5.265-0.239
			c1.7-0.16,3.403-0.451,5.105-0.877c6.701-1.488,12.843-4.229,18.427-8.218c5.584-3.988,10.131-8.958,13.641-14.917
			c2.126-3.614,3.749-7.418,4.866-11.407C191.85,65.333,192.46,61.213,192.568,56.957z M281.272,8.296l3.35-8.137h-67.805
			l6.541,16.114h-21.379l32.866,81.845c0.85,2.129,1.381,3.35,1.596,3.67c0.212,0.319,0.479,0.479,0.798,0.479h0.638l9.892-24.889
			l1.915,4.467l-12.125,29.994h27.123l20.261-50.574h-5.743l21.379-52.969H281.272z M219.688,2.074h62.062l-2.393,6.222h-5.744
			L251.597,62.86l-18.348-45.949l-0.319-0.638h-7.658L219.688,2.074z M252.714,65.253l22.176-55.042h3.669L254.469,69.88
			L252.714,65.253z M259.254,86.792l9.573-23.613h7.498l-16.114,40.046l-8.615-21.379l2.872-7.02L259.254,86.792z M237.238,98.757
			c-0.853-2.019-2.154-5.186-3.909-9.492c-1.755-4.308-3.724-9.174-5.903-14.599c-2.181-5.424-4.467-11.113-6.86-17.071
			c-2.393-5.955-4.654-11.591-6.78-16.911c-2.129-5.318-4.017-9.997-5.664-14.04c-1.65-4.041-2.792-6.86-3.43-8.456h19.304
			l22.814,56.638L237.238,98.757z M226.07,18.188h5.584l18.985,47.064l-2.872,7.18L226.07,18.188z M248.884,74.826l2.712-7.021
			l1.915,4.468l-2.872,7.179L248.884,74.826z M282.229,63.179l-18.826,46.747h-23.134l10.371-25.526l9.572,23.932L278.4,63.179
			H282.229z M277.124,61.266h-9.572l-8.297,20.421l-3.829-9.413l25.208-62.063h17.071L277.124,61.266z M395.662,0h-56.797v5.585
			h-27.441v106.096h89.345V5.585h-5.106V0z M340.78,1.915h53.127v3.67H340.78V1.915z M340.78,7.499h53.127v16.273H340.78V7.499z
			 M340.78,43.396h32.387v22.175H340.78V43.396z M395.024,87.111v16.592h-65.413V67.327h9.253v19.784H395.024z M338.865,41.482
			h-9.253V25.687h9.253V41.482z M399.014,7.499v102.267h-85.675V7.499h25.527v16.273h-11.168v19.625h11.168v22.175h-11.168v40.046
			h69.242v-20.42h-56.16v-17.87h34.302V41.482H340.78V25.687h54.882V7.499H399.014z M442.566,20.9h-8.137V0.16H416.4v104.342h7.34
			v7.338h72.592V91.577h-53.766V20.9z M434.43,22.814h6.223v68.763h-6.223V22.814z M440.652,93.35v9.078h-14.997V22.814h6.86V93.35
			H440.652z M423.74,102.428h-5.425V1.915h14.2v18.826h-8.775V102.428z M494.577,93.492v16.434h-68.922v-5.424h16.911v-11.01
			H494.577z M515.158,10.849h-4.946v7.818h4.946v13.241h-4.946v73.071h4.946V112h21.06v-7.021h5.903V16.912h-25.049v-4.148h25.049
			V0.319h-26.963V10.849z M515.158,103.065h-3.031V33.823h3.031V103.065z M515.158,16.912h-3.031v-4.148h3.031V16.912z
			 M517.072,2.234h23.134v8.615h-23.134V2.234z M517.072,18.667h23.134v84.398h-3.988V31.908h-19.146V18.667z M517.072,33.823h17.23
			v69.243h-17.23V33.823z M517.072,104.979h17.23v5.106h-17.23V104.979z M634.175,8.296l3.351-8.137h-67.807l6.542,16.114h-21.379
			l32.866,81.845c0.85,2.129,1.382,3.35,1.596,3.67c0.211,0.319,0.479,0.479,0.798,0.479h0.638l9.891-24.889l1.915,4.467
			L590.46,111.84h27.121l20.264-50.574h-5.744l21.379-52.969H634.175z M572.591,2.074h62.063l-2.393,6.222h-5.744L604.499,62.86
			l-18.347-45.949l-0.319-0.638h-7.658L572.591,2.074z M605.616,65.253l22.177-55.042h3.669l-24.09,59.669L605.616,65.253z
			 M612.158,86.792l9.571-23.613h7.5l-16.114,40.046l-8.616-21.379l2.873-7.02L612.158,86.792z M590.142,98.757
			c-0.854-2.019-2.154-5.186-3.909-9.492c-1.756-4.308-3.725-9.174-5.903-14.599c-2.181-5.424-4.468-11.113-6.86-17.071
			c-2.394-5.955-4.654-11.591-6.78-16.911c-2.129-5.318-4.017-9.997-5.664-14.04c-1.65-4.041-2.792-6.86-3.43-8.456h19.304
			l22.814,56.638L590.142,98.757z M578.973,18.188h5.584l18.985,47.064l-2.872,7.18L578.973,18.188z M601.787,74.826l2.712-7.021
			l1.915,4.468l-2.872,7.179L601.787,74.826z M635.133,63.179l-18.826,46.747h-23.135l10.37-25.526l9.573,23.932l18.188-45.152
			H635.133z M630.026,61.266h-9.573l-8.295,20.421l-3.829-9.413l25.207-62.063h17.071L630.026,61.266z M751.756,5.585V0h-56.797
			v5.585h-27.44v106.096h89.343V5.585H751.756z M696.873,1.915h53.128v3.67h-53.128V1.915z M696.873,7.499h53.128v16.273h-53.128
			V7.499z M696.873,43.396h32.388v22.175h-32.388V43.396z M751.118,87.111v16.592h-65.413V67.327h9.254v19.784H751.118z
			 M694.959,41.482h-9.254V25.687h9.254V41.482z M755.107,109.766h-85.676V7.499h25.527v16.273h-11.168v19.625h11.168v22.175
			h-11.168v40.046h69.242v-20.42h-56.16v-17.87h34.303V41.482h-34.303V25.687h54.883V7.499h3.352V109.766z"/>
	</g>
</g>
</svg>
