<?xml version="1.0" encoding="utf-8"?>
<!-- Generator: Adobe Illustrator 15.1.0, SVG Export Plug-In  -->
<!DOCTYPE svg PUBLIC "-//W3C//DTD SVG 1.1//EN" "http://www.w3.org/Graphics/SVG/1.1/DTD/svg11.dtd" [
	<!ENTITY ns_flows "http://ns.adobe.com/Flows/1.0/">
]>
<svg version="1.1"
	 xmlns="http://www.w3.org/2000/svg" xmlns:xlink="http://www.w3.org/1999/xlink" xmlns:a="http://ns.adobe.com/AdobeSVGViewerExtensions/3.0/"
	 x="0px" y="0px" width="711px" height="126px" viewBox="0 0.34 711 126"
	 overflow="visible" enable-background="new 0 0.34 711 126" xml:space="preserve">
<defs>
</defs>
<g>
	<g>
		<path fill="#FFFFFF" d="M5.1,2.345H0V119.34h53.848v-5.1H5.1V2.345z M85.35,2.345v93.746l23.249,23.249h30.599V25.594
			L115.948,2.345H85.35z M134.098,114.24h-23.399L90.45,93.991V7.294h23.399l20.249,20.249V114.24z M225.447,94.291l-21.749,21.749
			l-22.049-21.749V2.345h-4.95v94.046l26.999,26.85l26.849-26.85V2.345h-5.1V94.291z M271.049,119.34h53.848v-5.1h-48.748V77.642
			h48.748v-5.25h-48.748V7.444h48.748v-5.1h-53.848V119.34z M379.648,2.195h-14.25V119.34h59.098v-14.249h-44.848V2.195z
			 M455.996,119.34h14.1V2.345h-14.1V119.34z M553.194,90.991l-15.6,15.599l-15.749-15.599V2.045h-14.249v94.796l29.998,29.849
			l29.85-29.849V2.045h-14.25V90.991z M601.945,119.34h59.098v-14.249h-44.849V80.941h44.849v-14.25h-44.849V16.294h44.849V2.045
			h-59.098V119.34z M694.043,63.27c0.36,6.781,0.689,12.69,0.99,17.73c0.298,5.04,0.509,8.46,0.63,10.26h10.08
			c0.118-1.8,0.298-4.68,0.54-8.64c0.238-3.96,0.568-9.99,0.989-18.09c0.42-8.101,0.811-15.958,1.171-23.58
			c0.359-7.619,0.658-15.27,0.899-22.95V0h-16.92v18c0.118,6.961,0.329,14.552,0.63,22.77
			C693.352,48.991,693.683,56.492,694.043,63.27z M711.503,109.8l-10.26-10.44c-0.121-0.238-0.242-0.359-0.36-0.359
			c-0.242,0-0.422,0.121-0.54,0.359l-10.8,10.801c-0.121,0.121-0.18,0.242-0.18,0.359c0,0.121,0.118,0.301,0.359,0.54
			c0.118,0.121,1.44,1.44,3.96,3.96c2.521,2.521,4.109,4.112,4.771,4.771l1.53,1.53h0.899c0.838-0.842,2.039-2.039,3.601-3.601
			c2.88-2.88,5.278-5.279,7.199-7.2v-0.359L711.503,109.8z"/>
	</g>
</g>
</svg>
