<?xml version="1.0" encoding="utf-8"?>
<!-- Generator: Adobe Illustrator 15.1.0, SVG Export Plug-In  -->
<!DOCTYPE svg PUBLIC "-//W3C//DTD SVG 1.1//EN" "http://www.w3.org/Graphics/SVG/1.1/DTD/svg11.dtd" [
	<!ENTITY ns_flows "http://ns.adobe.com/Flows/1.0/">
]>
<svg version="1.1"
	 xmlns="http://www.w3.org/2000/svg" xmlns:xlink="http://www.w3.org/1999/xlink" xmlns:a="http://ns.adobe.com/AdobeSVGViewerExtensions/3.0/"
	 x="0px" y="0px" width="728px" height="140px" viewBox="0 0 728 140" enable-background="new 0 0 728 140" xml:space="preserve">
<defs>
</defs>
<g>
	<g>
		<path fill-rule="evenodd" clip-rule="evenodd" fill="#FFFFFF" d="M59.399,87.449H20.55V0H3v104.999h56.399V87.449z
			 M125.402,104.849c29.1,0,52.499-23.399,52.499-52.35C177.901,23.55,154.502,0,125.402,0c-28.949,0-52.35,23.55-52.35,52.499
			C73.053,81.449,96.453,104.849,125.402,104.849z M125.402,17.55c19.35,0,34.949,15.6,34.949,34.949
			c0,19.2-15.6,34.95-34.949,34.95c-19.2,0-34.95-15.75-34.95-34.95C90.453,33.15,106.203,17.55,125.402,17.55z M271.054,0h-83.849
			l41.999,104.999L271.054,0z M245.253,17.399l-16.05,40.35l-16.2-40.35H245.253z M362.256,87.449h-52.499v-26.25h52.499V43.8
			h-52.499V17.55h52.499V0h-70.049v104.999h70.049V87.449z M442.807,87.449h-38.849V0h-17.551v104.999h56.399V87.449z M484.51,0
			h-17.551v104.999h17.551V0z M589.657,0h-83.849l42,104.999L589.657,0z M563.857,17.399l-16.049,40.35l-16.2-40.35H563.857z
			 M680.859,87.449h-52.498v-26.25h52.498V43.8h-52.498V17.55h52.498V0h-70.049v104.999h70.049V87.449z M716.711,104.999
			c4.951,0,8.851-3.9,8.851-8.699c0-4.801-3.899-8.851-8.851-8.851c-4.8,0-8.699,4.05-8.699,8.851
			C708.012,101.099,711.911,104.999,716.711,104.999z M725.562,0h-17.55v74.398h17.55V0z M0,135v5h728.021v-5H0z"/>
	</g>
</g>
</svg>
